<svg width="60" height="66" viewBox="0 0 60 66" fill="none" xmlns="http://www.w3.org/2000/svg">
<g id="Group">
<path id="Vector" d="M32.1173 65.3216C31.0309 65.1341 29.8977 65.0787 28.8666 64.7294C26.4552 63.9114 24.0864 62.9698 21.7134 62.0496C20.4651 61.5681 19.2381 61.0313 17.9642 60.503C17.9216 60.6735 17.8833 60.814 17.8577 60.9504C17.7171 61.6619 17.372 61.9857 16.6307 61.9899C13.7805 62.0027 10.926 61.9942 8.07152 61.9942C7.34725 61.9942 6.92121 61.6278 6.76357 60.8737C5.21278 60.8737 3.66199 60.8737 2.11119 60.8737C1.83426 60.8737 1.55734 60.8822 1.28041 60.8652C0.603002 60.8226 0.17696 60.4093 0.164179 59.7958C0.151397 59.161 0.598742 58.6924 1.29745 58.6796C2.72469 58.6583 4.14767 58.6711 5.57491 58.6711C5.95409 58.6711 6.33327 58.6711 6.79766 58.6711C6.79766 58.3089 6.78914 57.9936 6.79766 57.6826C6.82322 56.9158 7.24074 56.4684 7.90537 56.4727C8.56147 56.4812 8.97473 56.9371 8.98751 57.7082C9.00029 58.3643 8.98751 59.0247 8.98751 59.7319H15.6039V46.499H9.0216C9.00881 46.7419 8.99177 46.9677 8.99177 47.1892C8.99177 49.1064 8.98751 51.0193 8.99177 52.9365C8.99177 53.5287 8.77449 53.9846 8.18655 54.1678C7.47506 54.3893 6.81044 53.8568 6.80192 53.026C6.78061 51.4709 6.7934 49.9201 6.7934 48.3651C6.7934 48.135 6.7934 47.9007 6.7934 47.5982C6.52925 47.5854 6.30345 47.5684 6.0819 47.5684C4.54815 47.5684 3.01866 47.5684 1.48491 47.5684C0.624304 47.5684 0.147137 47.1509 0.159918 46.4479C0.1727 45.7705 0.632825 45.3785 1.46787 45.3743C3.21038 45.3658 4.95715 45.3743 6.74653 45.3743C6.92547 44.4114 7.59436 44.2325 8.44644 44.241C11.0623 44.2666 13.6825 44.2495 16.3027 44.2495C17.5084 44.2495 17.8748 44.6074 17.8748 45.8046C17.8748 49.6773 17.8833 53.55 17.8662 57.4227C17.8662 57.8999 18.0111 58.1257 18.4584 58.3089C21.4748 59.5274 24.4528 60.8311 27.4863 61.9984C31.4868 63.5365 35.5257 63.4513 39.522 61.9516C45.15 59.8384 50.7609 57.6741 56.3762 55.5269C57.3859 55.1392 57.9057 54.3254 57.7608 53.4265C57.5521 52.1484 56.3634 51.5093 55.1023 52.0333C52.4353 53.1495 49.7683 54.2573 47.1268 55.4289C45.5206 56.1446 43.8761 56.4769 42.1166 56.4599C38.2864 56.4216 34.4521 56.4471 30.6219 56.4471C29.5142 56.4471 28.9476 56.0509 28.9732 55.3011C28.9987 54.5725 29.5355 54.2147 30.6219 54.2147C34.7077 54.2147 38.7977 54.2147 42.8834 54.2147C43.1987 54.2147 43.531 54.2189 43.8292 54.138C44.6004 53.9207 45.0903 53.1581 45.0094 52.3784C44.9327 51.6414 44.2595 50.981 43.4671 50.9086C43.0666 50.8745 42.6576 50.8915 42.2529 50.8915C39.8884 50.8915 37.5281 50.8702 35.1635 50.9C33.7746 50.9171 32.4582 50.6572 31.2141 50.048C27.7717 48.3651 24.1333 47.5599 20.3032 47.5641C19.498 47.5641 18.9952 47.1338 18.9867 46.4777C18.9782 45.8259 19.4852 45.3828 20.2776 45.37C24.0992 45.3146 27.776 46.0304 31.2397 47.6408C32.8033 48.3694 34.3711 48.7613 36.0966 48.7059C38.2651 48.6378 40.4422 48.7784 42.6065 48.6633C44.9838 48.5398 47.1907 49.7923 47.2674 52.9195C47.9278 52.6426 48.5711 52.3827 49.2102 52.11C50.9143 51.39 52.6015 50.6402 54.3184 49.9542C56.7894 48.9701 59.2349 50.2354 59.8783 52.7917C60.3171 54.5342 59.4522 56.5536 57.7736 57.2864C55.6136 58.228 53.3939 59.0332 51.187 59.8682C47.1353 61.402 43.0879 62.9528 39.0064 64.4184C37.8987 64.8146 36.6888 64.9296 35.5257 65.1767C35.3212 65.2193 35.1167 65.2662 34.9079 65.3088H32.096L32.1173 65.3216Z" fill="#E20613"/>
<path id="Vector_2" d="M7.8969 22.0823C7.8969 17.8475 7.8969 13.6126 7.8969 9.37776C7.8969 8.13798 8.03323 7.95478 9.24319 7.57134C17.0185 5.09604 24.7937 2.62925 32.5647 0.141168C33.1399 -0.0420303 33.6554 -0.0505512 34.2348 0.136907C42.0442 2.63777 49.8621 5.11734 57.6799 7.60117C58.6982 7.92496 58.9069 8.19763 58.9069 9.24995C58.9069 17.8049 58.9069 26.3598 58.9069 34.9147C58.9069 36.0139 58.7195 36.261 57.6501 36.6019C49.8365 39.0899 42.0229 41.5866 34.2007 44.0448C33.7151 44.1982 33.093 44.1982 32.6073 44.0448C24.7852 41.5866 16.9716 39.0899 9.15798 36.6019C8.06305 36.2525 7.90116 36.0352 7.90116 34.8551C7.90116 30.5989 7.90116 26.3428 7.90116 22.0866L7.8969 22.0823ZM38.1672 13.8682C37.9116 13.7617 37.8562 13.7319 37.7965 13.7149C31.1588 11.5974 24.5168 9.48001 17.8748 7.37962C17.632 7.30294 17.3252 7.3285 17.0781 7.40519C14.9266 8.07407 12.7879 8.77278 10.6321 9.43315C10.2273 9.5567 10.1208 9.75268 10.1208 10.1532C10.1336 18.1116 10.1336 26.0744 10.1208 34.0328C10.1208 34.4887 10.2827 34.6506 10.6875 34.7784C17.6746 36.9896 24.6617 39.2135 31.6445 41.4332C31.8319 41.4928 32.0279 41.5269 32.2836 41.5908C32.2836 41.3309 32.2836 41.1648 32.2836 40.9986C32.2836 39.9335 32.2665 38.8684 32.2921 37.8076C32.3091 37.0023 32.7607 36.5167 33.4168 36.5252C34.0687 36.5337 34.4947 37.0236 34.5245 37.8289C34.5416 38.2975 34.5245 38.7662 34.5245 39.2348C34.5245 40.0102 34.5245 40.7813 34.5245 41.6206C34.8568 41.5269 35.0784 41.4673 35.2999 41.3991C42.2061 39.205 49.1037 36.9981 56.0141 34.821C56.5381 34.6548 56.683 34.4248 56.683 33.8922C56.6659 26.2959 56.6702 18.6953 56.6702 11.099C56.6702 10.8732 56.6702 10.6474 56.6702 10.3577C56.3549 10.4429 56.1334 10.4897 55.9119 10.5622C54.4761 11.018 53.0446 11.5037 51.596 11.9255C51.072 12.0789 50.9144 12.3132 50.9229 12.85C50.9527 15.2103 50.9314 17.5748 50.9357 19.9351C50.9357 20.4506 50.8633 20.9576 50.3264 21.1578C49.5553 21.4475 48.7629 21.7117 47.9619 21.9034C47.3953 22.0397 46.9692 21.7372 46.7733 21.1834C46.5815 20.6423 46.8031 20.1311 47.3612 19.8627C47.685 19.7093 48.0514 19.6454 48.3709 19.4835C48.52 19.4068 48.7075 19.2066 48.7075 19.0617C48.7288 17.021 48.7245 14.9802 48.7245 12.9352C48.6223 12.9352 48.5541 12.9182 48.4987 12.9352C46.7775 13.4763 45.052 14.0088 43.3394 14.584C43.1817 14.6394 43.0156 14.9419 43.007 15.1379C42.973 16.1817 42.99 17.2212 42.99 18.265C42.99 19.2151 42.99 20.1652 42.99 21.1919C43.4246 21.0684 43.7611 20.9533 44.1105 20.8724C44.7794 20.719 45.3332 20.9959 45.5164 21.5455C45.7167 22.1462 45.4397 22.7129 44.7623 22.96C43.923 23.2625 43.0752 23.5437 42.2146 23.7822C41.4733 23.9867 40.864 23.5011 40.8001 22.7214C40.7831 22.5084 40.7916 22.2954 40.7916 22.0823C40.7916 19.8712 40.7916 17.6643 40.7916 15.402C40.536 15.4702 40.3315 15.5213 40.1355 15.5852C38.4739 16.1092 36.8209 16.6631 35.1508 17.153C34.6566 17.2979 34.5032 17.5066 34.5032 18.0264C34.5245 22.8577 34.516 27.6891 34.516 32.5204C34.516 32.7121 34.5245 32.9038 34.5118 33.0955C34.4521 33.807 34.0175 34.2714 33.4168 34.2842C32.8204 34.297 32.3602 33.8368 32.2878 33.1339C32.2665 32.9251 32.2793 32.7078 32.2793 32.4948C32.2793 27.6635 32.2708 22.8322 32.2921 18.0009C32.2921 17.5152 32.1557 17.3107 31.6828 17.1616C26.0463 15.3935 20.4225 13.5956 14.7945 11.8019C14.5133 11.7125 14.2236 11.6187 13.9723 11.4696C13.5164 11.197 13.363 10.7496 13.5121 10.2554C13.6612 9.7612 14.0234 9.46723 14.5645 9.49705C14.8584 9.5141 15.1524 9.59078 15.4336 9.68025C21.2448 11.525 27.056 13.3783 32.863 15.2273C33.0632 15.2912 33.2975 15.4105 33.4722 15.3551C34.9889 14.8993 36.4928 14.4093 38.1715 13.8725L38.1672 13.8682ZM46.0958 11.3546C45.8786 11.2566 45.7934 11.2012 45.6954 11.1714C39.0747 9.06249 32.454 6.95358 25.8333 4.84893C25.6756 4.79781 25.4839 4.73816 25.3391 4.78503C24.0056 5.18977 22.6763 5.61581 21.2491 6.06741C21.4237 6.15262 21.4749 6.18245 21.5302 6.20375C28.2106 8.33396 34.8909 10.4599 41.5755 12.5816C41.763 12.6412 41.9973 12.6455 42.1805 12.5901C43.4416 12.2067 44.6942 11.8019 46.0916 11.3589L46.0958 11.3546ZM29.1947 3.54525C29.3396 3.61341 29.395 3.6475 29.4546 3.6688C36.1563 5.80327 42.8537 7.93348 49.5553 10.0637C49.6916 10.1063 49.8578 10.1489 49.9856 10.1106C51.3149 9.69729 52.6399 9.27125 54.0543 8.81965C53.8626 8.73444 53.7689 8.68331 53.6709 8.64923C47.0289 6.54032 40.3911 4.42715 33.7491 2.3225C33.5915 2.27138 33.3998 2.21173 33.2592 2.25434C31.9257 2.66334 30.6007 3.0979 29.199 3.54525H29.1947Z" fill="#E20613"/>
<path id="Vector_3" d="M14.5432 30.4498C14.5432 30.9823 14.573 31.5149 14.5347 32.0432C14.4878 32.7376 14.0703 33.1424 13.461 33.1551C12.8561 33.1679 12.3704 32.7504 12.3448 32.0858C12.3065 30.961 12.3065 29.8363 12.3448 28.7115C12.3661 28.0938 12.8646 27.6634 13.4184 27.6507C14.0064 27.6379 14.4793 28.0724 14.5261 28.7328C14.5645 29.3037 14.5347 29.8789 14.5347 30.4498H14.5389H14.5432Z" fill="#E20613"/>
<path id="Vector_4" d="M18.974 31.5576C18.974 32.0901 18.991 32.6184 18.9697 33.151C18.9399 33.8071 18.4926 34.2672 17.9046 34.28C17.2997 34.297 16.8012 33.8156 16.7884 33.1339C16.7671 32.0518 16.7671 30.9696 16.7884 29.8875C16.8012 29.2186 17.2485 28.784 17.8535 28.7713C18.4883 28.7585 18.9399 29.1973 18.9697 29.9003C18.991 30.4499 18.974 31.0037 18.9697 31.5576H18.974Z" fill="#E20613"/>
</g>
</svg>
