<svg width="122" height="170" viewBox="0 0 122 170" fill="none" xmlns="http://www.w3.org/2000/svg">
<g id="Layer_1" clip-path="url(#clip0_22_315)">
<g id="Group">
<path id="Vector" d="M0.518188 55.2144C7.23399 60.7116 11.5176 69.0453 11.5176 78.3779V119.489C11.5176 126.397 13.3083 133.214 16.8866 139.135C27.6611 156.971 44.1208 150.499 61.0182 170C77.9156 150.499 94.3753 156.971 105.15 139.135C108.725 133.217 110.519 126.397 110.519 119.489V78.3779C110.519 69.0453 114.802 60.7116 121.518 55.2144C93.0011 53.1439 90.3957 27.8341 61.0182 27.8341C31.6407 27.8341 29.0353 53.1439 0.518188 55.2144Z" fill="#FFD200"/>
<path id="Vector_2" d="M61.0182 27.8343V62.071H50.7119V29.0361C30.5128 34.0853 25.2897 53.4165 0.518188 55.2146C7.23399 60.7088 11.5176 69.0455 11.5176 78.3781V92.8145H30.1419V103.061H11.5176V119.489C11.5176 126.397 13.3083 133.217 16.8866 139.135C27.6611 156.971 44.1208 150.499 61.0182 170V123.558H71.3245V160.84C84.4338 152.134 96.5855 153.311 105.15 139.135C108.725 133.217 110.519 126.397 110.519 119.489V92.8145H91.8945V82.5677H110.519V78.3781C110.519 69.0455 114.802 60.7119 121.518 55.2146C93.0011 53.1441 90.3957 27.8343 61.0182 27.8313" fill="#005AFF"/>
<path id="Vector_3" d="M91.7972 73.0594H91.4476L83.3333 81.1388C82.2054 82.2619 80.6731 82.8946 79.077 82.8946H70.984V74.8364C70.984 73.2471 71.6194 71.7215 72.7473 70.5984L80.8586 62.522V62.1709H41.1779V62.519L49.2952 70.6014C50.4231 71.7245 51.0585 73.2502 51.0585 74.8394V82.8976H42.9655C41.3694 82.8976 39.8371 82.2649 38.7092 81.1418L30.5949 73.0625H30.2422V112.572H30.5949L38.7092 104.493C39.8371 103.37 41.3694 102.737 42.9655 102.737H51.0585V110.796C51.0585 112.385 50.4231 113.91 49.2952 115.033L41.1779 123.116V123.464H80.8586V123.113L72.7473 115.037C71.6194 113.913 70.984 112.388 70.984 110.799V102.74H79.077C80.6731 102.74 82.2054 103.373 83.3333 104.496L91.4476 112.575H91.7972V73.0655V73.0594Z" fill="white"/>
<path id="Vector_4" d="M11.5176 92.8145H18.8445V78.3782C18.8445 71.7851 17.1146 65.4342 13.9164 59.8734C22.6478 56.7978 28.8073 51.6427 34.4438 46.9294C39.8037 42.4463 44.4004 38.6049 50.7089 36.607V29.0361C30.5128 34.0854 25.2897 53.4166 0.518188 55.2147C7.23399 60.7089 11.5176 69.0456 11.5176 78.3782V92.8145Z" fill="#1F1960"/>
<path id="Vector_5" d="M61.0182 35.1297V30.8735V62.1679H71.3245V36.6069C68.3542 35.6655 65.0069 35.1297 61.0182 35.1297Z" fill="#029C55"/>
<path id="Vector_6" d="M103.192 92.8145H110.519H91.7971V103.061H103.192V92.8145Z" fill="#029C55"/>
<path id="Vector_7" d="M18.8445 92.8144H11.5176H30.2392V82.5676H18.8445V92.8144Z" fill="#029C55"/>
<path id="Vector_8" d="M50.7119 123.461V152.319C54.044 154.156 57.5128 156.472 61.0182 159.593V123.461H50.7119Z" fill="#029C55"/>
<path id="Vector_9" d="M61.0182 27.8343V35.1297C73.48 35.1297 79.7063 40.3363 87.5895 46.9294C93.2261 51.6426 99.3886 56.7978 108.117 59.8734C104.919 65.4342 103.189 71.7851 103.189 78.3781V82.5677H110.516V78.3781C110.516 69.0455 114.799 60.7119 121.515 55.2146C92.998 53.1441 90.3926 27.8343 61.0151 27.8313" fill="#1F1960"/>
<path id="Vector_10" d="M61.0182 159.593C53.4086 152.815 45.9662 149.821 39.749 147.318C32.565 144.427 27.3723 142.338 23.1677 135.376C20.3403 130.699 18.8476 125.205 18.8476 119.489V103.061H11.5207V119.489C11.5207 126.397 13.3114 133.214 16.8897 139.135C27.6642 156.971 44.1238 150.499 61.0212 170V159.593H61.0182Z" fill="#1F1960"/>
<path id="Vector_11" d="M103.192 92.8145V119.489C103.192 125.205 101.699 130.696 98.8717 135.376C94.6641 142.338 89.4745 144.427 82.2905 147.318C78.9371 148.668 75.2281 150.16 71.3275 152.312V160.84C84.4369 152.134 96.5885 153.311 105.153 139.135C108.728 133.217 110.522 126.397 110.522 119.489V92.8145H103.195H103.192Z" fill="#1F1960"/>
<path id="Vector_12" d="M61.0182 37.0035C66.375 37.0035 70.838 38.0145 75.0609 40.188C79.0648 42.2464 82.6188 45.2191 86.3796 48.3673C91.5965 52.7324 97.4581 57.6333 105.448 60.8693C102.733 66.2757 101.307 72.2876 101.307 78.3781V119.489C101.307 124.863 99.9054 130.024 97.2574 134.407C93.3751 140.834 88.684 142.723 81.5821 145.58C75.6933 147.95 68.4393 150.869 61.0182 157.11C53.5971 150.869 46.3432 147.95 40.4543 145.58C33.3524 142.723 28.6613 140.837 24.779 134.407C22.128 130.021 20.7295 124.863 20.7295 119.489V78.3781C20.7295 72.2846 19.3036 66.2757 16.5887 60.8663C24.5784 57.6303 30.4399 52.7263 35.6568 48.3643C39.4206 45.2191 42.9716 42.2464 46.9755 40.185C51.1983 38.0115 55.6614 37.0005 61.0182 37.0005M61.0182 35.166C55.3543 35.166 50.6238 36.2437 46.1303 38.5534C41.944 40.7056 38.314 43.7418 34.4712 46.9566C28.8407 51.6638 22.6873 56.8099 13.9772 59.8915C17.1633 65.4493 18.8871 71.7911 18.8871 78.3751V119.486C18.8871 125.193 20.3798 130.681 23.2011 135.352C27.4027 142.305 32.5862 144.391 39.7642 147.278C45.9783 149.779 53.4147 152.773 61.0182 159.535C68.6248 152.77 76.0611 149.779 82.2722 147.278C89.4502 144.391 94.6337 142.305 98.8353 135.352C101.657 130.681 103.149 125.196 103.149 119.486V78.3751C103.149 71.7911 104.873 65.4493 108.059 59.8915C99.346 56.8099 93.1926 51.6638 87.5652 46.9566C83.7224 43.7418 80.0924 40.7056 75.9061 38.5534C71.4126 36.2406 66.6821 35.166 61.0182 35.166Z" fill="#FFD200"/>
<path id="Vector_13" d="M30.2392 92.8145H11.5176V103.061H30.2392V92.8145Z" fill="#FFD200"/>
<path id="Vector_14" d="M110.519 82.5676H91.7971V92.8144H110.519V82.5676Z" fill="#FFD200"/>
<path id="Vector_15" d="M61.0273 169.991C64.4901 165.995 67.9377 163.092 71.3184 160.843V123.458H61.0273V169.988V169.991Z" fill="#FFD200"/>
<path id="Vector_16" d="M61.0121 27.8344C57.1602 27.8344 53.7703 28.2733 50.721 29.0361V62.171H61.0121V27.8344Z" fill="#FFD200"/>
<g id="Group_2">
<path id="Vector_17" d="M45.3581 93.7681C45.3581 94.4038 45.4007 94.9244 45.4858 95.3331C45.5709 95.7417 45.726 96.0626 45.954 96.2957C46.182 96.5288 46.4921 96.6923 46.8904 96.7831C47.2886 96.8739 47.7963 96.9193 48.4226 96.9193H50.2771C50.5812 96.9193 50.9369 96.9163 51.3412 96.9102C51.7456 96.9042 52.2289 96.8921 52.7975 96.8769L52.159 100.349C51.6787 100.364 51.2713 100.373 50.9369 100.379C50.6024 100.385 50.3075 100.391 50.043 100.391H48.146C46.8569 100.391 45.7655 100.279 44.8717 100.052C43.9778 99.8284 43.2512 99.456 42.6918 98.9414C42.1324 98.4268 41.725 97.7457 41.4697 96.8981C41.2143 96.0505 41.0866 95.0001 41.0866 93.7438V91.861C41.0866 90.6622 41.2143 89.6391 41.4697 88.7915C41.725 87.9439 42.1355 87.2598 42.704 86.7391C43.2725 86.2184 43.9961 85.837 44.8838 85.5948C45.7685 85.3557 46.8508 85.2346 48.1247 85.2346H50.043C50.3623 85.2346 50.7332 85.2376 51.1588 85.2467C51.5844 85.2528 52.0861 85.2649 52.6667 85.28L52.0283 88.7521C51.3473 88.7249 50.7727 88.7097 50.3075 88.7097H48.4013C47.7781 88.7097 47.2673 88.7552 46.8721 88.846C46.4738 88.9368 46.1637 89.1002 45.9357 89.3333C45.7077 89.5664 45.5557 89.8873 45.4797 90.296C45.4007 90.7046 45.3611 91.2283 45.3611 91.861V93.765L45.3581 93.7681Z" fill="#1F1960"/>
<path id="Vector_18" d="M54.8891 85.28H62.6203C64.2347 85.28 65.4082 85.5948 66.1378 86.2215C66.8675 86.8511 67.2323 87.7835 67.2323 89.0246V89.3C67.2323 90.7682 66.6425 91.7853 65.469 92.3484C66.1774 92.6178 66.7246 93.0295 67.1077 93.5864C67.4907 94.1434 67.6823 94.873 67.6823 95.7781V96.1595C67.6823 97.6428 67.2354 98.7114 66.3415 99.3652C65.4477 100.022 64.11 100.349 62.3254 100.349H54.8921V85.28H54.8891ZM63.3013 89.6179C63.3013 89.1668 63.1888 88.846 62.9608 88.6553C62.7328 88.4646 62.3437 88.3707 61.7904 88.3707H58.6924V91.1436H61.7265C62.3072 91.1436 62.7146 91.0406 62.9487 90.8378C63.1828 90.635 63.2983 90.299 63.2983 89.8328V89.6209L63.3013 89.6179ZM58.6954 97.2583H61.9424C62.593 97.2583 63.0551 97.1554 63.3226 96.9526C63.5902 96.7468 63.727 96.3623 63.727 95.7993V95.5238C63.727 94.9305 63.5902 94.5339 63.3135 94.3281C63.0368 94.1253 62.5595 94.0224 61.8785 94.0224H58.6954V97.2614V97.2583Z" fill="#1F1960"/>
<path id="Vector_19" d="M80.9497 85.28L80.3325 88.5826H73.5164V91.5008H79.9708L79.3779 94.6974H73.5164V100.349H69.5186V85.28H80.9497Z" fill="#1F1960"/>
</g>
</g>
<g id="Group_3">
<path id="Vector_20" fill-rule="evenodd" clip-rule="evenodd" d="M67.132 18.9316L64.8549 11.8088L70.6647 7.42855V7.12281H63.3986L61.1185 0H60.8631L58.6377 7.12281H51.3716V7.43158L57.1267 11.8088L54.9013 18.9316H55.3178L60.9908 14.7057L66.7155 18.9316H67.132Z" fill="#029C55"/>
<path id="Vector_21" fill-rule="evenodd" clip-rule="evenodd" d="M95.1931 24.8647L92.9129 17.7389L98.7227 13.3617V13.0559H91.4567L89.1796 5.93311H88.9242L86.6957 13.0559H79.4296V13.3647L85.1847 17.7389L82.9593 24.8647H83.3758L89.0488 20.6389L94.7735 24.8647H95.1931Z" fill="#029C55"/>
<path id="Vector_22" fill-rule="evenodd" clip-rule="evenodd" d="M39.074 24.8647L36.7938 17.7389L42.6067 13.3617V13.0559H35.3406L33.0605 5.93311H32.8051L30.5797 13.0559H23.3136V13.3647L29.0687 17.7389L26.8433 24.8647H27.2567L32.9328 20.6389L38.6575 24.8647H39.074Z" fill="#029C55"/>
<path id="Vector_23" fill-rule="evenodd" clip-rule="evenodd" d="M16.3029 42.1103L14.0227 34.9845L19.8356 30.6073V30.3015H12.5695L10.2894 23.1787H10.034L7.80856 30.3015H0.54248V30.6103L6.29758 34.9845L4.07215 42.1103H4.48562L10.1617 37.8845L15.8864 42.1103H16.3029Z" fill="#029C55"/>
<path id="Vector_24" fill-rule="evenodd" clip-rule="evenodd" d="M117.961 42.1103L115.684 34.9845L121.494 30.6073V30.3015H114.228L111.948 23.1787H111.692L109.467 30.3015H102.201V30.6103L107.956 34.9845L105.73 42.1103H106.147L111.82 37.8845L117.545 42.1103H117.961Z" fill="#029C55"/>
</g>
</g>
<defs>
<clipPath id="clip0_22_315">
<rect width="121" height="170" fill="white" transform="translate(0.518188)"/>
</clipPath>
</defs>
</svg>
