<svg width="153" height="24" viewBox="0 0 153 24" fill="none" xmlns="http://www.w3.org/2000/svg">
<g id="Camada_1" clip-path="url(#clip0_183_280)">
<path id="Vector" d="M76.4852 15.2202V15.2015H77.5818L77.7385 15.0233C77.8119 14.9296 77.8805 14.8358 77.9588 14.7515H66.5176V15.2202H76.4803H76.4852Z" fill="white"/>
<path id="Vector_2" d="M140.918 14.864L140.511 14.7515H129.476C129.442 14.9015 129.418 15.0608 129.388 15.2202H140.35L140.854 15.0796L140.922 14.864H140.918Z" fill="white"/>
<path id="Vector_3" d="M95.8675 15.2202C96.8123 15.7921 97.9285 16.1671 98.986 16.4624C101.013 17.053 102.795 17.414 102.795 18.5015V18.5671C102.795 19.3546 102.109 19.8796 100.597 19.8796C98.8783 19.8796 96.7878 19.1577 94.7953 17.7749L93.6301 19.4952V15.2202H77.587C77.024 16.0358 76.7106 17.0483 76.7106 18.2718V18.3374C76.7106 18.4968 76.7204 18.6468 76.7351 18.7968H66.5178V15.2202H61.2305V23.3952H78.4927V22.2702C79.6431 23.2218 81.2489 23.7233 83.0212 23.7233C85.562 23.7233 87.3098 22.8374 88.5827 21.4874V23.3952H93.6252V21.7827C95.8136 23.1187 98.2468 23.7233 100.455 23.7233C103.999 23.7233 106.8 22.3124 107.377 19.2515C108.968 22.0593 112.062 23.789 115.832 23.789C119.161 23.789 121.633 22.5421 123.347 20.503L120.361 17.9718C118.921 19.2515 117.648 19.7812 115.901 19.7812C113.565 19.7812 111.92 18.5999 111.406 16.3312H124.037V23.3952H129.256V16.889C129.256 16.2843 129.305 15.7312 129.388 15.2202H95.8675ZM88.6904 17.1843C88.6904 18.9937 87.0454 20.2733 84.6074 20.2733C82.9282 20.2733 81.7581 19.4858 81.7581 18.1358V18.0702C81.7581 16.4952 83.1289 15.6374 85.3613 15.6374C86.6293 15.6374 87.7994 15.8999 88.6904 16.2937V17.1796V17.1843Z" fill="white"/>
<path id="Vector_4" d="M129.476 14.7515C130.103 11.9999 132.037 10.678 134.852 10.678H135.126V5.45147C132.037 5.32022 130.323 6.89522 129.256 9.32803V5.77959H124.037V12.5624C123.239 8.62022 120.434 5.45147 115.323 5.45147C110.212 5.45147 106.227 9.59053 106.227 14.6202V14.6858C106.227 14.6858 106.227 14.728 106.227 14.7468H129.471L129.476 14.7515ZM111.343 13.2093C111.754 10.9405 113.164 9.46397 115.323 9.46397C117.482 9.46397 118.892 10.978 119.2 13.2093H111.343Z" fill="white"/>
<path id="Vector_5" d="M93.6301 14.7517V13.1767C93.6301 12.797 93.6105 12.436 93.5762 12.0798C93.7818 13.2517 94.384 14.1048 95.1869 14.7517H106.016C104.915 13.7813 103.368 13.2048 101.938 12.7501C99.9455 12.0938 98.1978 11.6345 98.1978 10.6454V10.5798C98.1978 9.89072 98.8489 9.36572 100.122 9.36572C101.458 9.36572 103.279 9.98916 105.096 11.011L107.088 7.56103C105.096 6.28135 102.56 5.52197 100.225 5.52197C96.5185 5.52197 93.4979 7.52822 93.4979 11.1095V11.1751C93.4979 11.2782 93.5077 11.372 93.5126 11.4704C93.2727 9.87197 92.6705 8.54541 91.6424 7.56103C90.3402 6.31416 88.2791 5.5876 85.4298 5.5876C82.3064 5.5876 80.3187 6.14541 78.2919 6.99854L79.5941 10.8095C81.2734 10.2188 82.6833 9.85791 84.671 9.85791C87.2804 9.85791 88.6169 11.0063 88.6169 13.0782V13.3735C87.3146 12.947 85.9732 12.6517 84.1227 12.6517C81.43 12.6517 79.2417 13.3313 77.959 14.7517H93.6301Z" fill="white"/>
<path id="Vector_6" d="M66.5227 14.7516V0.393799H61.2354V14.7516H66.4835H66.5227Z" fill="white"/>
<path id="Vector_7" d="M129.456 14.7515L129.319 15.2202H129.388C129.412 15.0608 129.442 14.9015 129.476 14.7515H129.456Z" fill="#E20613"/>
<path id="Vector_8" d="M66.5236 14.7515H66.4834V15.2202H66.5236V14.7515Z" fill="#E20613"/>
<path id="Vector_9" d="M77.9787 14.7515H77.9591C77.8808 14.8405 77.8073 14.9343 77.7388 15.0233L77.9787 14.7515Z" fill="#E20613"/>
<path id="Vector_10" d="M61.2158 14.7515C61.2158 14.8405 61.2259 14.9249 61.2259 15.0187C61.2259 15.0983 61.2259 15.164 61.2259 15.2202H61.241V14.7515H61.2158Z" fill="white"/>
<path id="Vector_11" d="M106.232 14.7515H106.016C106.09 14.8171 106.168 14.878 106.236 14.9483C106.236 14.8827 106.232 14.8171 106.227 14.7515" fill="white"/>
<path id="Vector_12" d="M93.6299 14.7515V15.2202H95.8623C95.6273 15.0749 95.3972 14.9202 95.1867 14.7515H93.6299Z" fill="white"/>
<path id="Vector_13" d="M77.582 15.2016H76.4854V15.2203H77.5869C77.6358 15.1547 77.6848 15.0891 77.7386 15.0234L77.582 15.2016Z" fill="white"/>
<path id="Vector_14" d="M28.6887 6.24375C23.4699 6.24375 19.6611 10.3172 19.6611 15.0188V15.0844C19.6611 16.4578 19.994 17.7703 20.5815 18.9469L20.2828 18.6656C17.8448 20.9672 15.4802 22.2469 12.014 22.2469C6.28117 22.2469 1.85547 17.7141 1.85547 11.8969V11.8313C1.85547 6.04688 6.21263 1.54219 11.9797 1.54219C15.583 1.54219 17.9868 2.98594 20.0772 4.92656L21.3452 3.67969C18.8729 1.51406 16.3026 0 12.0091 0C5.07683 0 0 5.39062 0 11.8969V11.9625C0 18.5672 5.07683 23.7937 11.9406 23.7937C16.0481 23.7937 18.7505 22.2891 21.2179 20.025C22.7894 22.2797 25.438 23.7937 28.6202 23.7937C33.8341 23.7937 37.6478 19.7203 37.6478 15.0188V14.9531C37.6478 10.2562 33.8733 6.24375 28.6887 6.24375ZM35.8266 15.0844C35.8266 19.0266 32.8403 22.2797 28.6887 22.2797C24.5372 22.2797 21.4823 19.0594 21.4823 15.0188V14.9531C21.4823 11.0109 24.4686 7.75781 28.6202 7.75781C32.7717 7.75781 35.8266 10.9781 35.8266 15.0188V15.0844Z" fill="white"/>
<path id="Vector_15" d="M47.4638 8.14696V6.37039C43.9976 6.23914 41.0798 8.40946 39.709 11.4001V6.63758H38.0249V23.3954H39.709V16.5282C39.709 11.072 43.2437 8.14696 47.2924 8.14696H47.4638Z" fill="white"/>
<path id="Vector_16" d="M60.9955 14.7515H61.2158C61.1032 9.92334 58.014 6.24365 53.1966 6.24365C48.3793 6.24365 44.8936 10.1202 44.8936 14.9858V15.0515C44.8936 20.278 48.8738 23.7937 53.4708 23.7937C56.8341 23.7937 58.9295 22.4812 60.7115 20.639L59.5463 19.6546C58.107 21.1358 56.2516 22.2843 53.5393 22.2843C50.1075 22.2843 46.984 19.8515 46.6756 15.6796H61.1913C61.2158 15.4874 61.2207 15.3843 61.2256 15.2249H60.9955V14.7562V14.7515ZM46.6756 14.2312C46.984 10.5187 49.662 7.7249 53.1281 7.7249C57.1426 7.7249 59.1694 10.8468 59.4093 14.2312H46.6756Z" fill="white"/>
<path id="Vector_17" d="M61.2154 14.7515H60.9951V15.2202H61.2252C61.2252 15.164 61.2252 15.0983 61.2252 15.0187C61.2252 14.9296 61.2154 14.8405 61.2154 14.7515Z" fill="#57453A"/>
<path id="Vector_18" d="M146.029 15.872L153 16.6313L146.22 14.9673L152.672 13.022L146.029 14.0579L151.776 9.87666L145.495 13.2892L147.84 9.24385L144.692 12.7735L145.299 7.2001L143.747 12.5954L142.181 7.51416L142.802 12.7735L138.245 7.11572L142 13.2845L136.6 10.336L141.461 14.0532L132.414 12.5298L140.511 14.7517H140.952L140.918 14.8642L141.27 14.9579L140.849 15.0798L140.805 15.2204H140.35L131.753 17.6345L141.456 15.8673L137.084 19.2892L141.995 16.636L137.652 24.0001L142.798 17.1517L142.773 19.6079L143.742 17.3298L145.529 23.0673L144.687 17.1517L147.825 20.5548L145.49 16.6407L150.371 19.1438L146.029 15.872Z" fill="white"/>
<path id="Vector_19" d="M140.952 14.7515H140.511L140.918 14.864L140.952 14.7515Z" fill="#E20613"/>
<path id="Vector_20" d="M140.849 15.0796L140.35 15.2202H140.805L140.849 15.0796Z" fill="#E20613"/>
</g>
<defs>
<clipPath id="clip0_183_280">
<rect width="153" height="24" fill="white"/>
</clipPath>
</defs>
</svg>
