<svg width="204" height="34" viewBox="0 0 204 34" fill="none" xmlns="http://www.w3.org/2000/svg">
<g id="Camada_1" clip-path="url(#clip0_183_191)">
<path id="Vector" d="M103.978 20.9009L103.656 21.2877C103.585 21.3795 103.514 21.4647 103.456 21.563H101.987V21.5368H101.981V21.563H88.6997V20.9009H103.978Z" fill="#E10613"/>
<path id="Vector_2" d="M187.897 21.0582L187.356 20.9009H172.644C172.599 21.1107 172.567 21.3401 172.528 21.563H187.143L187.813 21.3664L187.903 21.0582H187.897Z" fill="#E10613"/>
<path id="Vector_3" d="M127.827 21.5631C129.09 22.3695 130.572 22.9006 131.983 23.3201C134.683 24.1593 137.068 24.6707 137.068 26.2114V26.3032C137.068 27.4177 136.146 28.1651 134.136 28.1651C131.848 28.1651 129.058 27.1424 126.403 25.1821L124.85 27.621V21.5631H103.456C102.703 22.717 102.29 24.1462 102.29 25.8836V25.9754C102.29 26.1983 102.303 26.4146 102.322 26.631H88.7V21.5631H81.6504V33.1478H104.668V31.5546C106.202 32.8986 108.347 33.6132 110.706 33.6132C114.095 33.6132 116.428 32.3545 118.123 30.4466V33.1478H124.85V30.8597C127.763 32.7544 131.01 33.6132 133.955 33.6132C138.679 33.6132 142.416 31.6136 143.183 27.2735C145.303 31.253 149.427 33.705 154.453 33.705C158.893 33.705 162.186 31.9349 164.473 29.0502L160.491 25.464C158.571 27.28 156.876 28.0274 154.543 28.0274C151.431 28.0274 149.234 26.3491 148.551 23.1366H165.388V33.1478H172.341V23.9299C172.341 23.071 172.412 22.2908 172.522 21.5631H127.827ZM118.258 24.3495C118.258 26.9063 116.061 28.7224 112.813 28.7224C110.57 28.7224 109.017 27.6078 109.017 25.7V25.6017C109.017 23.3726 110.848 22.1597 113.818 22.1597C115.513 22.1597 117.066 22.5334 118.258 23.0907V24.3495Z" fill="#E10613"/>
<path id="Vector_4" d="M172.341 13.2172V8.1952H165.388V17.7999C164.325 12.2141 160.588 7.72316 153.763 7.72316C146.939 7.72316 141.643 13.5909 141.643 20.7174V20.8944H172.638C173.475 17.0001 176.046 15.1316 179.803 15.1316H180.17V7.72316C176.053 7.53959 173.765 9.77522 172.341 13.2172ZM148.46 18.7112C149.008 15.4987 150.883 13.4073 153.763 13.4073C156.644 13.4073 158.526 15.5512 158.938 18.7112H148.46Z" fill="#E10613"/>
<path id="Vector_5" d="M135.921 18.0621C137.828 18.7111 139.89 19.5241 141.359 20.9009H126.925C125.849 19.983 125.05 18.7701 124.773 17.1114C124.818 17.6162 124.85 18.1276 124.85 18.6652V20.9009H103.953C105.667 18.8816 108.586 17.9244 112.175 17.9244C114.643 17.9244 116.428 18.344 118.168 18.9471V18.5275C118.168 15.597 116.383 13.9645 112.903 13.9645C110.248 13.9645 108.373 14.4759 106.131 15.315L104.391 9.91281C107.091 8.70649 109.746 7.9132 113.908 7.9132C117.71 7.9132 120.455 8.93595 122.195 10.7061C123.561 12.096 124.367 13.9842 124.683 16.246C124.676 16.1083 124.663 15.9707 124.663 15.8264V15.7346C124.663 10.6602 128.691 7.82141 133.633 7.82141C136.745 7.82141 140.129 8.89006 142.783 10.7061L140.129 15.597C137.706 14.1481 135.283 13.2695 133.498 13.2695C131.713 13.2695 130.933 14.0104 130.933 14.9872V15.0856C130.933 16.482 133.266 17.1311 135.921 18.0621Z" fill="#E10613"/>
<path id="Vector_6" d="M88.7 0.557251H81.6504V20.9009H88.7V0.557251Z" fill="#E10613"/>
<path id="Vector_7" d="M172.638 20.9009C172.593 21.1107 172.561 21.3336 172.522 21.563H172.432L172.612 20.9009H172.638Z" fill="#E10613"/>
<path id="Vector_8" d="M88.7 20.9009H88.6484V21.563H88.7V20.9009Z" fill="#E10613"/>
<path id="Vector_9" d="M127.827 21.563H124.85V20.9009H126.925C127.209 21.1369 127.511 21.3598 127.827 21.563Z" fill="#E10613"/>
<path id="Vector_10" d="M38.2573 8.8442C31.2979 8.8442 26.2201 14.6201 26.2201 21.2746V21.3664C26.2201 23.3135 26.6647 25.1755 27.4444 26.8407L27.0449 26.4408C23.7972 29.6992 20.6397 31.5152 16.0195 31.5152C8.37703 31.5152 2.47445 25.0902 2.47445 16.8492V16.7574C2.47445 8.56228 8.28682 2.18319 15.9744 2.18319C20.775 2.18319 23.9776 4.23525 26.7678 6.98226L28.4626 5.21211C25.1698 2.13729 21.7352 0 16.0195 0C6.77251 0 0 7.63132 0 16.8492V16.941C0 26.3031 6.77251 33.705 15.9292 33.705C21.4065 33.705 25.0087 31.5742 28.295 28.3683C30.3957 31.5611 33.9205 33.705 38.167 33.705C45.12 33.705 50.1977 27.929 50.1977 21.2746V21.1828C50.1977 14.5218 45.1651 8.8442 38.2573 8.8442ZM47.7748 21.3664C47.7748 26.9522 43.7925 31.5611 38.2573 31.5611C32.722 31.5611 28.6494 26.9981 28.6494 21.2746V21.1828C28.6494 15.597 32.6253 10.988 38.167 10.988C43.7088 10.988 47.7748 15.5511 47.7748 21.2746V21.3664Z" fill="black"/>
<path id="Vector_11" d="M63.2851 11.5453V9.03431C58.6648 8.85074 54.7727 11.919 52.9427 16.1608V9.40801H50.7002V33.1542H52.9427V23.425C52.9427 15.6953 57.6531 11.5519 63.0531 11.5519H63.2851V11.5453Z" fill="black"/>
<path id="Vector_12" d="M81.6372 21.5631H81.3279V20.8944H81.6243C81.4761 14.0563 77.352 8.84424 70.9275 8.84424C64.503 8.84424 59.8569 14.3383 59.8569 21.2287V21.3205C59.8569 28.7224 65.1602 33.705 71.2948 33.705C75.7797 33.705 78.5699 31.8431 80.9477 29.2337L79.3947 27.8373C77.4745 29.9353 75 31.5612 71.385 31.5612C66.8099 31.5612 62.6471 28.1192 62.2347 22.2056H81.5921C81.6243 21.9302 81.6308 21.786 81.6372 21.5631ZM62.2347 20.1601C62.6471 14.8955 66.217 10.9422 70.8373 10.9422C76.1921 10.9422 78.8921 15.361 79.2079 20.1601H62.2347Z" fill="black"/>
<path id="Vector_13" d="M194.708 22.4874L204 23.5626L194.966 21.2024L203.568 18.4489L194.714 19.9174L202.37 13.9973L193.999 18.8291L197.124 13.0991L192.929 18.1014L193.735 10.2013L191.666 17.8391L189.579 10.6405L190.403 18.0948L184.333 10.0833L189.334 18.8225L182.142 14.6398L188.618 19.9109L176.562 17.7473L187.349 20.9008H187.942L187.897 21.0582L188.367 21.1959L187.807 21.3598L187.742 21.563H187.136L175.679 24.9787L188.618 22.4809L182.78 27.3258L189.327 23.5692L183.541 34L190.397 24.2969L190.371 27.7782L191.66 24.5526L194.044 32.6756L192.923 24.2969L197.105 29.1222L193.993 23.5757L200.501 27.1226L194.708 22.4874Z" fill="#E10613"/>
<path id="Vector_14" d="M187.942 20.9009H187.349L187.897 21.0582L187.942 20.9009Z" fill="#E10613"/>
<path id="Vector_15" d="M187.806 21.3599L187.136 21.5631H187.742L187.806 21.3599Z" fill="#E10613"/>
</g>
<defs>
<clipPath id="clip0_183_191">
<rect width="204" height="34" fill="white"/>
</clipPath>
</defs>
</svg>
