<svg width="153" height="25" viewBox="0 0 153 25" fill="none" xmlns="http://www.w3.org/2000/svg">
<g id="Camada_1" clip-path="url(#clip0_1_1794)">
<path id="Vector" d="M76.4853 16.1978V16.179H77.5819L77.7386 16.0009C77.812 15.9071 77.8806 15.8134 77.9589 15.729H66.5177V16.1978H76.4804H76.4853Z" fill="white"/>
<path id="Vector_2" d="M140.917 15.8415L140.511 15.729H129.476C129.442 15.879 129.417 16.0384 129.388 16.1978H140.35L140.854 16.0571L140.922 15.8415H140.917Z" fill="white"/>
<path id="Vector_3" d="M95.8673 16.1978C96.8122 16.7696 97.9284 17.1446 98.9859 17.4399C101.013 18.0306 102.795 18.3915 102.795 19.479V19.5446C102.795 20.3321 102.109 20.8571 100.597 20.8571C98.8782 20.8571 96.7877 20.1353 94.7952 18.7524L93.63 20.4728V16.1978H77.5868C77.0238 17.0134 76.7105 18.0259 76.7105 19.2493V19.3149C76.7105 19.4743 76.7203 19.6243 76.735 19.7743H66.5177V16.1978H61.2304V24.3728H78.4925V23.2478C79.643 24.1993 81.2488 24.7009 83.0211 24.7009C85.5619 24.7009 87.3097 23.8149 88.5826 22.4649V24.3728H93.6251V22.7603C95.8135 24.0962 98.2466 24.7009 100.455 24.7009C103.999 24.7009 106.799 23.2899 107.377 20.229C108.968 23.0368 112.062 24.7665 115.832 24.7665C119.161 24.7665 121.633 23.5196 123.347 21.4806L120.36 18.9493C118.921 20.229 117.648 20.7587 115.9 20.7587C113.565 20.7587 111.92 19.5774 111.406 17.3087H124.037V24.3728H129.256V17.8665C129.256 17.2618 129.305 16.7087 129.388 16.1978H95.8673ZM88.6903 18.1618C88.6903 19.9712 87.0453 21.2509 84.6073 21.2509C82.928 21.2509 81.758 20.4634 81.758 19.1134V19.0478C81.758 17.4728 83.1288 16.6149 85.3612 16.6149C86.6292 16.6149 87.7992 16.8774 88.6903 17.2712V18.1571V18.1618Z" fill="white"/>
<path id="Vector_4" d="M129.476 15.729C130.103 12.9774 132.037 11.6556 134.852 11.6556H135.126V6.42901C132.037 6.29776 130.323 7.87276 129.256 10.3056V6.75713H124.037V13.5399C123.239 9.59776 120.434 6.42901 115.323 6.42901C110.212 6.42901 106.227 10.5681 106.227 15.5978V15.6634C106.227 15.6634 106.227 15.7056 106.227 15.7243H129.471L129.476 15.729ZM111.343 14.1868C111.754 11.9181 113.164 10.4415 115.323 10.4415C117.482 10.4415 118.892 11.9556 119.2 14.1868H111.343Z" fill="white"/>
<path id="Vector_5" d="M93.63 15.7292V14.1542C93.63 13.7745 93.6104 13.4136 93.5762 13.0573C93.7818 14.2292 94.3839 15.0823 95.1868 15.7292H106.016C104.915 14.7589 103.368 14.1823 101.938 13.7276C99.9454 13.0714 98.1977 12.612 98.1977 11.6229V11.5573C98.1977 10.8683 98.8488 10.3433 100.122 10.3433C101.458 10.3433 103.279 10.9667 105.096 11.9886L107.088 8.53857C105.096 7.25889 102.56 6.49951 100.224 6.49951C96.5185 6.49951 93.4978 8.50576 93.4978 12.087V12.1526C93.4978 12.2558 93.5076 12.3495 93.5125 12.4479C93.2726 10.8495 92.6705 9.52295 91.6424 8.53857C90.3401 7.2917 88.279 6.56514 85.4297 6.56514C82.3063 6.56514 80.3186 7.12295 78.2918 7.97607L79.5941 11.787C81.2733 11.1964 82.6832 10.8354 84.6709 10.8354C87.2803 10.8354 88.6168 11.9839 88.6168 14.0558V14.3511C87.3146 13.9245 85.9732 13.6292 84.1226 13.6292C81.43 13.6292 79.2416 14.3089 77.9589 15.7292H93.63Z" fill="white"/>
<path id="Vector_6" d="M66.5226 15.7291V1.37134H61.2353V15.7291H66.4834H66.5226Z" fill="white"/>
<path id="Vector_7" d="M129.457 15.729L129.32 16.1978H129.388C129.413 16.0384 129.442 15.879 129.476 15.729H129.457Z" fill="#E20613"/>
<path id="Vector_8" d="M66.5237 15.729H66.4834V16.1978H66.5237V15.729Z" fill="#E20613"/>
<path id="Vector_9" d="M77.9785 15.729H77.9589C77.8806 15.8181 77.8071 15.9118 77.7386 16.0009L77.9785 15.729Z" fill="#E20613"/>
<path id="Vector_10" d="M61.2157 15.729C61.2157 15.8181 61.2257 15.9024 61.2257 15.9962C61.2257 16.0759 61.2257 16.1415 61.2257 16.1978H61.2408V15.729H61.2157Z" fill="white"/>
<path id="Vector_11" d="M106.232 15.729H106.016C106.09 15.7946 106.168 15.8556 106.236 15.9259C106.236 15.8603 106.232 15.7946 106.227 15.729" fill="white"/>
<path id="Vector_12" d="M93.63 15.729V16.1978H95.8624C95.6274 16.0524 95.3973 15.8978 95.1868 15.729H93.63Z" fill="white"/>
<path id="Vector_13" d="M77.5819 16.1791H76.4853V16.1979H77.5868C77.6358 16.1322 77.6848 16.0666 77.7386 16.001L77.5819 16.1791Z" fill="white"/>
<path id="Vector_14" d="M28.6887 7.22129C23.4699 7.22129 19.6611 11.2947 19.6611 15.9963V16.0619C19.6611 17.4354 19.994 18.7479 20.5815 19.9244L20.2828 19.6432C17.8448 21.9447 15.4802 23.2244 12.014 23.2244C6.28117 23.2244 1.85547 18.6916 1.85547 12.8744V12.8088C1.85547 7.02441 6.21263 2.51973 11.9797 2.51973C15.583 2.51973 17.9868 3.96348 20.0772 5.9041L21.3452 4.65723C18.8729 2.4916 16.3026 0.977539 12.0091 0.977539C5.07683 0.977539 0 6.36816 0 12.8744V12.94C0 19.5447 5.07683 24.7713 11.9406 24.7713C16.0481 24.7713 18.7505 23.2666 21.2179 21.0025C22.7894 23.2572 25.438 24.7713 28.6202 24.7713C33.8341 24.7713 37.6478 20.6979 37.6478 15.9963V15.9307C37.6478 11.2338 33.8733 7.22129 28.6887 7.22129ZM35.8266 16.0619C35.8266 20.0041 32.8403 23.2572 28.6887 23.2572C24.5372 23.2572 21.4823 20.0369 21.4823 15.9963V15.9307C21.4823 11.9885 24.4686 8.73535 28.6202 8.73535C32.7717 8.73535 35.8266 11.9557 35.8266 15.9963V16.0619Z" fill="white"/>
<path id="Vector_15" d="M47.4637 9.1245V7.34793C43.9975 7.21668 41.0797 9.387 39.7089 12.3776V7.61512H38.0248V24.3729H39.7089V17.5057C39.7089 12.0495 43.2436 9.1245 47.2923 9.1245H47.4637Z" fill="white"/>
<path id="Vector_16" d="M60.9954 15.729H61.2157C61.1031 10.9009 58.0139 7.22119 53.1965 7.22119C48.3792 7.22119 44.8934 11.0978 44.8934 15.9634V16.029C44.8934 21.2556 48.8736 24.7712 53.4707 24.7712C56.834 24.7712 58.9294 23.4587 60.7114 21.6165L59.5462 20.6321C58.1069 22.1134 56.2514 23.2618 53.5392 23.2618C50.1074 23.2618 46.9839 20.829 46.6755 16.6571H61.1912C61.2157 16.4649 61.2206 16.3618 61.2255 16.2024H60.9954V15.7337V15.729ZM46.6755 15.2087C46.9839 11.4962 49.6618 8.70244 53.128 8.70244C57.1425 8.70244 59.1693 11.8243 59.4092 15.2087H46.6755Z" fill="white"/>
<path id="Vector_17" d="M61.2157 15.729H60.9954V16.1978H61.2255C61.2255 16.1415 61.2255 16.0759 61.2255 15.9962C61.2255 15.9071 61.2157 15.8181 61.2157 15.729Z" fill="#57453A"/>
<path id="Vector_18" d="M146.029 16.8495L153 17.6089L146.219 15.9448L152.672 13.9995L146.029 15.0354L151.776 10.8542L145.495 14.2667L147.84 10.2214L144.692 13.7511L145.299 8.17764L143.747 13.5729L142.181 8.4917L142.802 13.7511L138.244 8.09326L141.999 14.262L136.599 11.3136L141.461 15.0308L132.414 13.5073L140.511 15.7292H140.952L140.917 15.8417L141.27 15.9354L140.849 16.0573L140.805 16.1979H140.35L131.753 18.612L141.456 16.8448L137.084 20.2667L141.994 17.6136L137.652 24.9776L142.797 18.1292L142.773 20.5854L143.742 18.3073L145.529 24.0448L144.687 18.1292L147.825 21.5323L145.49 17.6183L150.371 20.1214L146.029 16.8495Z" fill="white"/>
<path id="Vector_19" d="M140.952 15.729H140.511L140.917 15.8415L140.952 15.729Z" fill="#E20613"/>
<path id="Vector_20" d="M140.849 16.0571L140.35 16.1978H140.805L140.849 16.0571Z" fill="#E20613"/>
</g>
<defs>
<clipPath id="clip0_1_1794">
<rect width="153" height="24" fill="white" transform="translate(0 0.977539)"/>
</clipPath>
</defs>
</svg>
