<svg width="203" height="31" viewBox="0 0 203 31" fill="none" xmlns="http://www.w3.org/2000/svg">
<g id="Vector">
<path d="M101.481 19.6596V19.6354H102.936L103.143 19.4053C103.241 19.2842 103.332 19.1631 103.436 19.0541H88.2555V19.6596H101.481Z" fill="white"/>
<path d="M186.969 19.1994L186.43 19.0541H171.789C171.743 19.2479 171.711 19.4537 171.672 19.6596H186.215L186.884 19.4779L186.975 19.1994H186.969Z" fill="white"/>
<path d="M127.197 19.6596C128.45 20.3982 129.931 20.8826 131.334 21.2641C134.023 22.027 136.388 22.4932 136.388 23.8979V23.9826C136.388 24.9998 135.478 25.6779 133.471 25.6779C131.191 25.6779 128.418 24.7455 125.774 22.9594L124.228 25.1814V19.6596H102.942C102.195 20.7131 101.779 22.0209 101.779 23.6012V23.6859C101.779 23.8918 101.792 24.0855 101.812 24.2793H88.2555V19.6596H81.2403V30.2189H104.144V28.7658C105.67 29.9949 107.801 30.6428 110.152 30.6428C113.523 30.6428 115.842 29.4984 117.531 27.7547V30.2189H124.222V28.1361C127.125 29.8617 130.353 30.6428 133.283 30.6428C137.986 30.6428 141.701 28.8203 142.468 24.8666C144.579 28.4934 148.684 30.7275 153.686 30.7275C158.103 30.7275 161.383 29.117 163.656 26.4832L159.694 23.2137C157.784 24.8666 156.095 25.5508 153.776 25.5508C150.678 25.5508 148.496 24.025 147.814 21.0945H164.572V30.2189H171.496V21.815C171.496 21.034 171.561 20.3195 171.672 19.6596H127.197ZM117.674 22.1965C117.674 24.5336 115.491 26.1865 112.257 26.1865C110.029 26.1865 108.476 25.1693 108.476 23.4256V23.3408C108.476 21.3064 110.295 20.1984 113.257 20.1984C114.939 20.1984 116.492 20.5375 117.674 21.0461V22.1965Z" fill="white"/>
<path d="M171.789 19.0541C172.62 15.5 175.186 13.7926 178.921 13.7926H179.285V7.0416C175.186 6.87207 172.912 8.90645 171.496 12.0488V7.46543H164.572V16.2266C163.513 11.1346 159.791 7.0416 153.01 7.0416C146.229 7.0416 140.941 12.3879 140.941 18.8846V18.9693C140.941 18.9693 140.941 19.0238 140.941 19.048H171.782L171.789 19.0541ZM147.729 17.0621C148.275 14.1316 150.145 12.2244 153.01 12.2244C155.875 12.2244 157.745 14.1801 158.154 17.0621H147.729Z" fill="white"/>
<path d="M124.228 19.0541V17.0197C124.228 16.5293 124.202 16.0631 124.157 15.6029C124.429 17.1166 125.228 18.2186 126.294 19.0541H140.662C139.2 17.8008 137.148 17.0561 135.251 16.4688C132.607 15.6211 130.288 15.0277 130.288 13.7502V13.6654C130.288 12.7754 131.152 12.0973 132.841 12.0973C134.614 12.0973 137.031 12.9025 139.441 14.2225L142.084 9.76621C139.441 8.11328 136.076 7.13242 132.978 7.13242C128.06 7.13242 124.053 9.72383 124.053 14.3496V14.4344C124.053 14.5676 124.066 14.6887 124.072 14.8158C123.754 12.7512 122.955 11.0377 121.591 9.76621C119.863 8.15566 117.128 7.21719 113.348 7.21719C109.204 7.21719 106.567 7.9377 103.877 9.03965L105.605 13.9621C107.833 13.1992 109.704 12.733 112.341 12.733C115.803 12.733 117.577 14.2164 117.577 16.8926V17.274C115.849 16.723 114.069 16.3416 111.614 16.3416C108.041 16.3416 105.138 17.2195 103.436 19.0541H124.228Z" fill="white"/>
<path d="M88.262 19.0541V0.508594H81.2468V19.0541H88.21H88.262Z" fill="white"/>
<path d="M171.763 19.0541L171.581 19.6596H171.672C171.704 19.4537 171.743 19.2479 171.789 19.0541H171.763Z" fill="#E20613"/>
<path d="M88.2634 19.0541H88.21V19.6596H88.2634V19.0541Z" fill="#E20613"/>
<path d="M103.462 19.0541H103.436C103.332 19.1691 103.234 19.2902 103.143 19.4053L103.462 19.0541Z" fill="#E20613"/>
<path d="M81.2208 19.0541C81.2208 19.1691 81.2341 19.2781 81.2341 19.3992C81.2341 19.5021 81.2341 19.5869 81.2341 19.6596H81.2541V19.0541H81.2208Z" fill="white"/>
<path d="M140.948 19.0541H140.662C140.759 19.1389 140.863 19.2176 140.954 19.3084C140.954 19.2236 140.948 19.1389 140.941 19.0541" fill="white"/>
<path d="M124.228 19.0541L124.228 19.6596H127.19C126.878 19.4719 126.573 19.2721 126.294 19.0541H124.228Z" fill="white"/>
<path d="M102.936 19.6354H101.481V19.6596H102.942C103.007 19.5748 103.072 19.49 103.143 19.4053L102.936 19.6354Z" fill="white"/>
<path d="M38.0641 8.06484C31.1398 8.06484 26.0863 13.3264 26.0863 19.3992V19.484C26.0863 21.258 26.528 22.9533 27.3074 24.473L26.9112 24.1098C23.6764 27.0826 20.539 28.7355 15.9402 28.7355C8.33384 28.7355 2.46183 22.8807 2.46183 15.3668V15.282C2.46183 7.81055 8.2429 1.99199 15.8947 1.99199C20.6754 1.99199 23.8648 3.85684 26.6384 6.36348L28.3207 4.75293C25.0405 1.95566 21.6303 0 15.9337 0C6.73592 0 0 6.96289 0 15.3668V15.4516C0 23.9826 6.73592 30.7336 15.8427 30.7336C21.2925 30.7336 24.8781 28.79 28.1519 25.8656C30.2369 28.7779 33.7511 30.7336 37.9732 30.7336C44.891 30.7336 49.951 25.4721 49.951 19.3992V19.3145C49.951 13.2477 44.943 8.06484 38.0641 8.06484ZM47.5347 19.484C47.5347 24.576 43.5724 28.7779 38.0641 28.7779C32.5559 28.7779 28.5026 24.6184 28.5026 19.3992V19.3145C28.5026 14.2225 32.4649 10.0205 37.9732 10.0205C43.4814 10.0205 47.5347 14.1801 47.5347 19.3992V19.484Z" fill="white"/>
<path d="M62.9747 10.523V8.22832C58.3758 8.05879 54.5044 10.8621 52.6857 14.725V8.57344H50.4512V30.2189H52.6857V21.3488C52.6857 14.3012 57.3755 10.523 62.7473 10.523H62.9747Z" fill="white"/>
<path d="M80.9285 19.0541H81.2208C81.0714 12.8178 76.9727 8.06484 70.581 8.06484C64.1894 8.06484 59.5645 13.0721 59.5645 19.3568V19.4416C59.5645 26.1926 64.8454 30.7336 70.9448 30.7336C75.4072 30.7336 78.1874 29.0383 80.5517 26.6588L79.0058 25.3873C77.0961 27.3006 74.6343 28.784 71.0357 28.784C66.4823 28.784 62.3381 25.6416 61.9289 20.2529H81.1883C81.2208 20.0047 81.2273 19.8715 81.2338 19.6656H80.9285V19.0541ZM61.9289 18.382C62.3381 13.5867 65.8912 9.97812 70.4901 9.97812C75.8165 9.97812 78.5056 14.0105 78.8239 18.382H61.9289Z" fill="white"/>
<path d="M81.2208 19.0541H80.9285V19.6596H81.2341C81.2341 19.5869 81.2341 19.5021 81.2341 19.3992C81.2341 19.2842 81.2208 19.1691 81.2208 19.0541Z" fill="#57453A"/>
<path d="M193.75 20.5012L203 21.482L194.004 19.3326L202.565 16.8199L193.75 18.158L201.376 12.7572L193.042 17.165L196.154 11.9398L191.977 16.499L192.782 9.3L190.723 16.2689L188.645 9.70566L189.47 16.499L183.422 9.19102L188.404 17.159L181.24 13.3506L187.69 18.152L175.686 16.1842L186.43 19.0541H187.014L186.969 19.1994L187.437 19.3205L186.878 19.4779L186.819 19.6596L186.215 19.6596L174.809 22.7777L187.683 20.4951L181.883 24.915L188.398 21.4881L182.636 31L189.463 22.1541L189.431 25.3268L190.717 22.3842L193.088 29.7951L191.971 22.1541L196.134 26.5498L193.036 21.4941L199.512 24.7273L193.75 20.5012Z" fill="white"/>
<path d="M187.014 19.0541H186.43L186.969 19.1994L187.014 19.0541Z" fill="#E20613"/>
<path d="M186.878 19.4779L186.215 19.6596L186.819 19.6596L186.878 19.4779Z" fill="#E20613"/>
</g>
</svg>
