<svg width="204" height="34" viewBox="0 0 204 34" fill="none" xmlns="http://www.w3.org/2000/svg">
<g id="Camada_1" clip-path="url(#clip0_181_123)">
<path id="Vector" d="M103.978 20.9009L103.656 21.2877C103.585 21.3795 103.514 21.4647 103.456 21.563H101.987V21.5368H101.981V21.563H88.6997V20.9009H103.978Z" fill="#E10613"/>
<path id="Vector_2" d="M187.897 21.0582L187.356 20.9009H172.644C172.599 21.1107 172.567 21.3401 172.528 21.563H187.143L187.813 21.3664L187.903 21.0582H187.897Z" fill="#E10613"/>
<path id="Vector_3" d="M127.827 21.563C129.09 22.3694 130.572 22.9004 131.983 23.32C134.683 24.1592 137.068 24.6706 137.068 26.2113V26.3031C137.068 27.4176 136.146 28.165 134.136 28.165C131.848 28.165 129.058 27.1422 126.403 25.182L124.85 27.6208V21.563H103.456C102.703 22.7169 102.29 24.1461 102.29 25.8835V25.9753C102.29 26.1982 102.303 26.4145 102.322 26.6309H88.7V21.563H81.6504V33.1476H104.668V31.5545C106.202 32.8985 108.347 33.6131 110.706 33.6131C114.095 33.6131 116.428 32.3543 118.123 30.4465V33.1476H124.85V30.8596C127.763 32.7543 131.01 33.6131 133.955 33.6131C138.679 33.6131 142.416 31.6135 143.183 27.2734C145.303 31.2529 149.427 33.7049 154.453 33.7049C158.893 33.7049 162.186 31.9348 164.473 29.0501L160.491 25.4639C158.571 27.2799 156.876 28.0273 154.543 28.0273C151.431 28.0273 149.234 26.349 148.551 23.1365H165.388V33.1476H172.341V23.9297C172.341 23.0709 172.412 22.2907 172.522 21.563H127.827ZM118.258 24.3493C118.258 26.9062 116.061 28.7223 112.813 28.7223C110.57 28.7223 109.017 27.6077 109.017 25.6999V25.6016C109.017 23.3725 110.848 22.1596 113.818 22.1596C115.513 22.1596 117.066 22.5333 118.258 23.0906V24.3493Z" fill="#E10613"/>
<path id="Vector_4" d="M172.341 13.2172V8.1952H165.388V17.7999C164.325 12.2141 160.588 7.72316 153.763 7.72316C146.939 7.72316 141.643 13.5909 141.643 20.7174V20.8944H172.638C173.475 17.0001 176.046 15.1316 179.803 15.1316H180.17V7.72316C176.053 7.53959 173.765 9.77522 172.341 13.2172ZM148.46 18.7112C149.008 15.4987 150.883 13.4073 153.763 13.4073C156.644 13.4073 158.526 15.5512 158.938 18.7112H148.46Z" fill="#E10613"/>
<path id="Vector_5" d="M135.921 18.0622C137.828 18.7112 139.89 19.5242 141.359 20.901H126.925C125.849 19.9831 125.05 18.7702 124.773 17.1115C124.818 17.6164 124.85 18.1277 124.85 18.6653V20.901H103.953C105.667 18.8817 108.586 17.9245 112.175 17.9245C114.643 17.9245 116.428 18.3441 118.168 18.9473V18.5277C118.168 15.5971 116.383 13.9646 112.903 13.9646C110.248 13.9646 108.373 14.476 106.131 15.3152L104.391 9.91293C107.091 8.70661 109.746 7.91332 113.908 7.91332C117.71 7.91332 120.455 8.93607 122.195 10.7062C123.561 12.0961 124.367 13.9843 124.683 16.2461C124.676 16.1085 124.663 15.9708 124.663 15.8265V15.7348C124.663 10.6603 128.691 7.82153 133.633 7.82153C136.745 7.82153 140.129 8.89018 142.783 10.7062L140.129 15.5971C137.706 14.1482 135.283 13.2697 133.498 13.2697C131.713 13.2697 130.933 14.0105 130.933 14.9874V15.0857C130.933 16.4822 133.266 17.1312 135.921 18.0622Z" fill="#E10613"/>
<path id="Vector_6" d="M88.7 0.557373H81.6504V20.901H88.7V0.557373Z" fill="#E10613"/>
<path id="Vector_7" d="M172.638 20.9009C172.593 21.1107 172.561 21.3336 172.522 21.563H172.432L172.612 20.9009H172.638Z" fill="#E10613"/>
<path id="Vector_8" d="M88.7 20.9009H88.6484V21.563H88.7V20.9009Z" fill="#E10613"/>
<path id="Vector_9" d="M127.827 21.563H124.85V20.9009H126.925C127.209 21.1369 127.511 21.3598 127.827 21.563Z" fill="#E10613"/>
<path id="Vector_10" d="M38.2573 8.8442C31.2979 8.8442 26.2201 14.6201 26.2201 21.2746V21.3664C26.2201 23.3135 26.6647 25.1755 27.4444 26.8407L27.0449 26.4408C23.7972 29.6992 20.6397 31.5152 16.0195 31.5152C8.37703 31.5152 2.47445 25.0902 2.47445 16.8492V16.7574C2.47445 8.56228 8.28682 2.18319 15.9744 2.18319C20.775 2.18319 23.9776 4.23525 26.7678 6.98226L28.4626 5.21211C25.1698 2.13729 21.7352 0 16.0195 0C6.77251 0 0 7.63132 0 16.8492V16.941C0 26.3031 6.77251 33.705 15.9292 33.705C21.4065 33.705 25.0087 31.5742 28.295 28.3683C30.3957 31.5611 33.9205 33.705 38.167 33.705C45.12 33.705 50.1977 27.929 50.1977 21.2746V21.1828C50.1977 14.5218 45.1651 8.8442 38.2573 8.8442ZM47.7748 21.3664C47.7748 26.9522 43.7925 31.5611 38.2573 31.5611C32.722 31.5611 28.6494 26.9981 28.6494 21.2746V21.1828C28.6494 15.597 32.6253 10.988 38.167 10.988C43.7088 10.988 47.7748 15.5511 47.7748 21.2746V21.3664Z" fill="white"/>
<path id="Vector_11" d="M63.2851 11.5454V9.03443C58.6648 8.85086 54.7727 11.9191 52.9427 16.1609V9.40813H50.7002V33.1544H52.9427V23.4251C52.9427 15.6954 57.6531 11.552 63.0531 11.552H63.2851V11.5454Z" fill="white"/>
<path id="Vector_12" d="M81.6372 21.5631H81.3279V20.8944H81.6243C81.4761 14.0563 77.352 8.84424 70.9275 8.84424C64.503 8.84424 59.8569 14.3383 59.8569 21.2287V21.3205C59.8569 28.7224 65.1602 33.705 71.2948 33.705C75.7797 33.705 78.5699 31.8431 80.9477 29.2337L79.3947 27.8373C77.4745 29.9353 75 31.5612 71.385 31.5612C66.8099 31.5612 62.6471 28.1192 62.2347 22.2056H81.5921C81.6243 21.9302 81.6308 21.786 81.6372 21.5631ZM62.2347 20.1601C62.6471 14.8955 66.217 10.9422 70.8373 10.9422C76.1921 10.9422 78.8921 15.361 79.2079 20.1601H62.2347Z" fill="white"/>
<path id="Vector_13" d="M194.708 22.4874L204 23.5626L194.966 21.2024L203.568 18.4489L194.714 19.9174L202.37 13.9973L193.999 18.8291L197.124 13.0991L192.929 18.1014L193.735 10.2013L191.666 17.8391L189.579 10.6405L190.403 18.0948L184.333 10.0833L189.334 18.8225L182.142 14.6398L188.618 19.9109L176.562 17.7473L187.349 20.9008H187.942L187.897 21.0582L188.367 21.1959L187.807 21.3598L187.742 21.563H187.136L175.679 24.9787L188.618 22.4809L182.78 27.3258L189.327 23.5692L183.541 34L190.397 24.2969L190.371 27.7782L191.66 24.5526L194.044 32.6756L192.923 24.2969L197.105 29.1222L193.993 23.5757L200.501 27.1226L194.708 22.4874Z" fill="#E10613"/>
<path id="Vector_14" d="M187.942 20.9009H187.349L187.897 21.0582L187.942 20.9009Z" fill="#E10613"/>
<path id="Vector_15" d="M187.806 21.3599L187.136 21.5631H187.742L187.806 21.3599Z" fill="#E10613"/>
</g>
<defs>
<clipPath id="clip0_181_123">
<rect width="204" height="34" fill="white"/>
</clipPath>
</defs>
</svg>
