<svg width="138" height="164" viewBox="0 0 138 164" fill="none" xmlns="http://www.w3.org/2000/svg">
<g id="Vector">
<path fill-rule="evenodd" clip-rule="evenodd" d="M68.8253 163.698C47.5634 155.4 30.5056 143.902 18.601 127.982C6.23392 111.413 0.132446 90.0966 0.132446 60.4014V0.115723H137.518V60.4014C137.518 90.0966 131.418 111.412 119.051 127.982C107.144 143.902 90.0863 155.4 68.8253 163.698Z" fill="black"/>
<path fill-rule="evenodd" clip-rule="evenodd" d="M68.8253 158.981C59.2796 155.156 50.574 150.682 42.8446 145.286H94.805C87.0756 150.682 78.3719 155.156 68.8253 158.981ZM22.6139 125.868C18.5179 120.363 15.0747 114.206 12.3083 107.319H125.341C122.575 114.206 119.132 120.362 115.036 125.868H22.6139ZM6.36906 85.7051C5.4199 80.0633 4.82318 74.0429 4.5789 67.6161H133.043C132.826 74.0439 132.229 80.0642 131.28 85.7051H6.36906ZM71.104 25.3906H133.18V46.6795H71.104V25.3906ZM4.47074 4.48204H66.7367V63.2498H4.47074V4.48204Z" fill="#CD3529"/>
<path fill-rule="evenodd" clip-rule="evenodd" d="M45.9634 60.6194C44.4445 60.1308 42.6003 56.0088 42.6814 54.0293V53.758C40.701 50.3949 38.6946 47.7106 37.3119 46.0286L37.3389 54.7333C37.2298 57.6628 36.4979 59.5332 34.3833 60.5373C36.1184 60.7816 38.7766 61.134 40.3495 58.8022C40.784 59.8045 43.7667 61.3774 45.9634 60.6194ZM51.3059 41.2287C51.8485 42.4492 52.2001 44.5648 48.8649 47.2491C52.932 46.7344 54.7771 45.2156 54.9664 43.2352C55.2918 39.5747 54.0723 39.5467 54.9123 34.5846C55.1837 32.9035 56.241 31.7371 58.0582 30.2724C54.2615 30.8411 51.9297 32.7124 50.7362 36.9165L42.6814 36.8894V22.57H45.2035C44.9592 20.9971 44.4986 19.4512 43.5495 17.716H39.6717C37.7193 17.716 36.8783 16.9562 34.98 17.6349C36.3627 18.4489 37.3398 19.5062 37.3398 20.6997V37.1887C39.157 38.1109 41.0283 39.6017 42.4921 41.2287H51.3059ZM54.7501 22.57H58.8721C58.8721 24.8748 61.5303 29.4314 65.4622 29.5666C63.4818 26.7191 62.6958 24.7117 63.5639 20.8069C65.5433 15.7086 63.9974 11.6407 61.6926 11.071C62.1261 12.4808 62.4245 16.6578 60.0385 17.7422H52.3912C53.1231 20.184 54.2075 22.1635 54.7501 22.57ZM36.1193 51.9138C19.8214 57.7439 12.5796 49.8252 8.10515 38.0288C7.48139 36.537 7.42731 35.5067 5.66419 34.3953C7.64455 33.7445 7.99606 32.5241 8.29442 31.2765C9.40675 23.3029 14.3418 16.5776 22.0983 14.1096V18.0424C16.6196 20.7817 13.664 28.0766 13.8542 34.883C14.0985 42.5844 21.2843 50.5851 28.5792 50.3949C30.9661 50.3409 33.6784 50.0695 36.1184 48.2533L36.1193 51.9138ZM29.9088 12.8351C31.1022 12.781 32.3768 12.726 33.7325 12.6989C33.4341 14.435 32.8103 21.1602 35.5226 23.438C35.007 24.5494 33.5973 25.7699 32.2407 25.7438C31.3185 25.7168 31.0481 25.3093 30.5586 24.6315C30.3423 24.3061 30.1251 23.9807 29.9079 23.6283L29.9088 12.8351ZM28.6613 40.7402V49.1194C28.1186 49.2006 27.4678 49.2006 26.6548 49.0383C25.7867 48.8761 24.5392 48.5507 23.3187 47.7638V12.753C23.3187 10.5834 21.6917 8.65801 18.9524 7.54661C21.6097 5.83757 26.7079 7.43846 27.5489 9.36382C30.2071 7.62866 33.3791 6.8147 36.5249 6.84174C42.5182 6.89581 48.4025 10.0957 50.6542 16.1981C51.8196 19.4251 52.4173 22.7071 54.8032 23.9275C54.1777 24.2578 53.6317 24.7204 53.2033 25.2832C51.9828 26.8841 51.1968 29.2971 49.1894 32.2537C48.4025 33.4471 47.4272 34.5855 46.2608 35.6979H43.8739V32.8495C45.555 30.1651 46.4771 26.775 46.423 23.4931C46.369 18.6932 42.6534 11.3712 34.138 10.8827C31.6971 10.7465 29.6095 11.4794 28.6603 12.0761V36.3477C33.6504 36.3477 37.2568 38.1109 39.9421 40.4698C42.5182 42.7205 44.3084 45.623 45.9084 48.6327C48.1862 52.9179 49.7591 56.6875 52.5254 56.6055C54.614 56.4973 55.5902 55.4941 56.5123 54.1916C57.4344 58.4768 54.1254 60.2669 52.0919 60.321C49.9223 60.348 47.3191 58.5038 45.6641 56.1179C43.142 52.5385 40.729 47.4673 37.2298 44.1312C33.353 40.3877 30.6137 40.7402 28.6613 40.7402ZM29.1498 54.9776C29.7186 57.2833 30.8579 60.0488 32.8103 61.2963C27.6851 61.2422 27.3047 59.452 26.5727 58.666C25.3523 59.8865 23.481 61.92 19.5762 61.5135C21.7729 59.4791 22.722 57.4456 23.1015 54.8964C25.0008 55.1948 27.3597 55.2759 29.1498 54.9776Z" fill="white"/>
</g>
</svg>
