<svg width="121" height="164" viewBox="0 0 121 164" fill="none" xmlns="http://www.w3.org/2000/svg">
<g id="Layer_1" clip-path="url(#clip0_22_344)">
<path id="Vector" fill-rule="evenodd" clip-rule="evenodd" d="M18.0656 136.356L4.98114 125.3L120.518 27.6497V49.7624L18.0656 136.356Z" fill="black"/>
<path id="Vector_2" fill-rule="evenodd" clip-rule="evenodd" d="M34.424 150.178L21.3395 139.122L108.709 65.2737V87.3922L34.424 150.178Z" fill="#FF0000"/>
<path id="Vector_3" fill-rule="evenodd" clip-rule="evenodd" d="M50.7766 164L37.6922 152.944L96.8938 102.904V125.022L50.7766 164Z" fill="black"/>
<path id="Vector_4" fill-rule="evenodd" clip-rule="evenodd" d="M4.98114 119.769V97.6502L120.518 0V22.1185L4.98114 119.769Z" fill="#FF0000"/>
<path id="Vector_5" fill-rule="evenodd" clip-rule="evenodd" d="M14.6423 31.4335L20.0874 26.8281L20.5814 27.2447L15.1362 31.85L14.6423 31.4335ZM26.6009 28.801L25.9691 28.2687V44.1445L26.6009 43.6123V28.801ZM47.8128 28.801L47.181 28.2687V43.6585L47.8128 43.1263V28.8068V28.801ZM14.2747 31.121L19.7198 26.5157L15.096 22.6104L4.26891 31.7632L1.4372 38.625L9.6681 31.6707L4.27465 39.192V57.2375L10.3631 62.3867L25.4981 49.5946L20.0242 56.4448V61.9412L25.4981 57.3185V49.5946L30.972 44.9719V61.947L46.7158 48.64L41.2419 56.549V61.7676L46.7158 57.1449V48.64L57.6578 39.3887V27.2389L52.1839 22.6161L41.2419 31.8674V49.3111L36.4401 53.3669V27.2447L30.9662 22.6277L20.0242 31.879V49.8029L12.8387 55.8778L9.74852 53.2627L9.65661 27.2215L14.2804 31.1268L14.2747 31.121ZM52.1839 31.8674L46.71 27.2447V44.6768L52.1839 40.0541V31.8674ZM30.972 31.8674L25.4981 27.2447V45.1686L30.972 40.5459V31.8732V31.8674ZM10.7709 29.611V30.6524L10.8513 53.3611L10.2195 52.823L10.1334 28.2398L10.7709 28.7836V29.6168V29.611ZM37.5486 28.1704V51.5965L36.9168 52.1287V27.6381L37.5486 28.1704ZM58.7606 28.1704V39.9094L47.8186 49.1607V57.6656L41.2419 63.2256V62.3925L47.1868 57.3647V48.8598L58.1288 39.6086V27.6323L58.7606 28.1646V28.1704ZM41.0466 54.8769L30.972 63.3934V62.5603L44.2861 51.3072L41.0466 54.8711V54.8769ZM30.4952 46.8233L26.6009 50.1153V57.8392L20.0242 63.3992V62.566L25.9691 57.5383V49.8145L30.4952 45.9902V46.8233ZM11.2247 63.1099L10.7307 62.6933L22.092 53.0891L19.5475 56.2713L11.2189 63.1041L11.2247 63.1099ZM5.53829 36.6116L7.04892 34.5056L1.04662 39.5797L0.518188 40.8525C2.18964 39.4408 3.86684 38.0233 5.53829 36.6116Z" fill="black"/>
</g>
<defs>
<clipPath id="clip0_22_344">
<rect width="120" height="164" fill="white" transform="translate(0.518188)"/>
</clipPath>
</defs>
</svg>
