<svg width="65" height="65" viewBox="0 0 65 65" fill="none" xmlns="http://www.w3.org/2000/svg">
<path id="Vector" d="M0 34.6244C0 33.9835 0 33.3427 0 32.7019C0.0373371 32.6056 0.0995524 32.5176 0.116147 32.4171C0.356764 30.9638 0.933413 29.6445 2.00789 28.6602C2.89983 27.8435 3.95773 27.2195 4.97828 26.4823C3.52628 24.1746 3.21097 21.603 4.56755 18.9937C5.93658 16.3592 8.21831 15.1195 11.1721 15.0483C11.2011 12.9625 11.8483 11.1574 13.292 9.69147C14.7523 8.21301 16.5486 7.53031 18.598 7.5345C18.6644 6.97327 18.6893 6.4623 18.7889 5.96389C18.8884 5.46549 19.0129 4.9587 19.2079 4.4938C21.2241 -0.297598 27.1731 -1.49126 30.9566 2.14417C31.471 2.63839 31.9191 3.20381 32.4708 3.8153C34.7733 1.00915 37.4118 -0.716427 40.9837 0.288762C44.539 1.28976 46.2192 3.87394 46.4142 7.50937C50.5544 7.52613 53.7903 10.6925 53.8733 15.0525C56.7565 15.1153 59.03 16.3341 60.4073 18.9266C61.8012 21.5485 61.4984 24.1453 59.9178 26.6624C60.2496 26.8048 60.5608 26.9221 60.8636 27.0687C65.4436 29.2969 66.4102 35.1563 62.8051 38.8964C61.2868 40.4712 59.7311 42.0125 58.1795 43.5622C58.0011 43.7381 57.7522 43.8428 57.4618 44.0271C58.1463 44.6888 58.723 45.1202 59.1337 45.6731C59.6813 46.4102 60.2953 47.1892 60.5442 48.052C61.3573 50.8624 60.428 53.2748 58.4782 55.2978C56.043 57.8233 53.5663 60.3069 51.0772 62.7738C48.0736 65.7517 43.7425 65.7266 40.7431 62.7403C39.7184 61.7226 38.7186 60.6755 37.6814 59.6703C37.5072 59.4986 37.1546 59.3813 36.9222 59.4232C33.9768 59.9844 31.0396 59.9844 28.0941 59.4232C27.8618 59.3771 27.5133 59.5028 27.3349 59.6703C26.1899 60.776 25.103 61.9529 23.9414 63.0419C21.1867 65.6261 17.005 65.6721 14.2711 63.0628C11.811 60.7174 9.45872 58.2547 7.065 55.838C6.66259 55.4318 6.27678 55.0046 5.91171 54.5606C3.6051 51.7545 3.77103 47.7882 6.30995 45.2082C6.67918 44.8354 7.1065 44.5213 7.33882 44.3244C5.57568 42.4565 3.95358 40.7141 2.30245 39.0011C1.40221 38.0671 0.692793 37.0284 0.319422 35.7719C0.207411 35.3908 0.107863 35.0013 0 34.6202V34.6244ZM18.5068 35.5416C18.6437 36.3206 18.8469 37.0494 18.8843 37.7865C19.0792 41.8408 16.1338 45.1412 12.1221 45.4469C11.7985 45.472 11.4334 45.6396 11.1928 45.8615C10.4419 46.5526 9.74911 47.3023 9.02726 48.0227C8.16851 48.8813 7.95279 49.92 8.38424 51.0215C8.62486 51.6372 9.02728 52.2319 9.48362 52.7052C11.8027 55.1051 14.1632 57.4631 16.5154 59.8337C18.1458 61.4755 20.0127 61.4755 21.6431 59.842C22.8876 58.5939 24.1488 57.3542 25.3602 56.0726C26.082 55.3103 26.862 55.1051 27.8783 55.3354C29.0482 55.5993 30.2472 55.8297 31.442 55.8799C37.25 56.1228 42.2117 54.1418 46.3187 49.9828C50.7992 45.4469 55.2921 40.9194 59.7808 36.3876C60.0049 36.1615 60.2289 35.9311 60.4197 35.6756C61.0627 34.8254 61.2494 33.8621 60.9839 32.8318C60.4446 30.7418 58.2874 29.7701 56.3126 30.6413C55.7982 30.8675 55.1511 31.0517 54.6325 30.9387C53.0477 30.591 52.5457 28.7147 53.6659 27.5252C54.6532 26.4739 55.7194 25.4897 56.6653 24.3966C57.5779 23.3453 57.6112 21.8291 56.8893 20.6271C56.184 19.446 54.7984 18.7717 53.4667 19.1067C52.8403 19.2659 52.2346 19.6387 51.6994 20.0282C50.7453 20.715 49.6749 20.7318 48.9406 19.9695C48.2063 19.2115 48.2022 18.1602 48.924 17.2471C49.0444 17.0964 49.1771 16.9582 49.285 16.799C49.9902 15.7729 50.1313 14.663 49.6376 13.5196C49.1356 12.3594 48.2354 11.6809 46.9701 11.5301C45.8582 11.3961 44.958 11.8275 44.1407 12.5479C43.5267 13.0924 42.8132 13.1845 42.0706 12.8494C41.3488 12.5228 40.9795 11.9196 40.9339 11.1322C40.8883 10.3867 41.3529 9.87157 41.7761 9.33128C42.7883 8.03291 42.6555 6.11048 41.4939 4.94614C40.3531 3.79436 38.4531 3.62264 37.2043 4.62364C36.5157 5.1765 35.9141 5.84243 35.213 6.51675C37.7271 8.61508 39.5317 11.0485 38.9343 14.4954C38.3452 17.8963 36.1672 19.8355 32.8732 20.5894C33.4126 23.2573 32.8484 25.6028 30.9566 27.521C29.0483 29.456 26.6877 29.9837 24.0949 29.4728C22.9955 33.1124 22.2363 33.9291 18.5109 35.55L18.5068 35.5416ZM25.4639 25.6907C27.0736 25.7536 28.3181 24.9955 28.8616 23.7599C29.4631 22.3904 29.2515 21.092 28.2268 20.0324C25.7584 17.4817 23.2652 14.9562 20.7387 12.4683C19.3738 11.1281 17.3368 11.1741 16.0591 12.4641C14.7606 13.7751 14.744 15.8441 16.1006 17.2346C18.5441 19.7476 21.0249 22.2228 23.4975 24.7107C24.1197 25.3389 24.8789 25.6824 25.468 25.6907H25.4639ZM22.5558 7.09054C22.5226 8.22557 22.8669 9.02972 23.7132 9.89251C25.1279 11.3291 26.5467 12.7615 27.9696 14.1897C28.5546 14.7761 29.1188 15.3875 29.7494 15.9195C31.0769 17.0335 32.9769 16.9163 34.18 15.6891C35.3914 14.4536 35.52 12.439 34.3169 11.1699C32.2592 8.99621 30.1476 6.87275 27.9987 4.79117C27.0113 3.83205 25.7626 3.71059 24.518 4.26345C23.2693 4.82049 22.6304 5.84662 22.5558 7.09054ZM20.2077 28.7147C20.216 27.542 19.9629 26.7755 19.3738 26.1766C17.2954 24.0531 15.2294 21.9171 13.0887 19.8564C11.8234 18.6377 9.84453 18.7591 8.6124 19.9863C7.39272 21.1967 7.20605 23.182 8.38839 24.4468C10.471 26.6792 12.6324 28.8445 14.8353 30.9638C15.8268 31.9187 17.1004 31.9774 18.3284 31.4036C19.5729 30.8214 20.1703 29.7659 20.2118 28.7189L20.2077 28.7147ZM41.5437 58.0327C42.2241 58.7112 42.8547 59.3646 43.5102 59.9928C45.0078 61.4336 46.8871 61.4294 48.3598 59.9551C50.8075 57.5092 53.251 55.059 55.6489 52.5628C56.1467 52.0476 56.5118 51.3566 56.7897 50.6823C57.0801 49.9744 57.0386 49.1954 56.491 48.5755C55.9891 48.0059 55.4373 47.4824 54.8855 46.9128C54.6781 47.1096 54.508 47.2688 54.3462 47.4321C52.7158 49.0781 51.0813 50.7116 49.4634 52.3701C47.2937 54.5899 44.8833 56.4663 42.0457 57.7479C41.8964 57.8149 41.7553 57.9112 41.5354 58.0327H41.5437ZM14.9846 38.5907C15.0095 37.4096 14.8021 36.6599 14.2545 36.0903C12.6199 34.3898 10.9937 32.6768 9.27204 31.0727C8.03576 29.9209 6.08594 30.0842 4.8953 31.2737C3.67977 32.4799 3.50138 34.4736 4.65468 35.7426C6.24358 37.485 7.9113 39.1561 9.62881 40.7686C10.6079 41.69 11.8524 41.778 13.0721 41.2083C14.3125 40.6262 14.9348 39.5917 14.9888 38.5907H14.9846Z" fill="#E20613"/>
</svg>
