<svg width="24" height="24" viewBox="0 0 24 24" fill="none" xmlns="http://www.w3.org/2000/svg">
<g id="ins_fill" clip-path="url(#clip0_1_1287)">
<g id="Group">
<path id="Vector" d="M16 2.99438C17.3261 2.99438 18.5979 3.52019 19.5355 4.45612C20.4732 5.39206 21 6.66146 21 7.98507V15.9702C21 17.2938 20.4732 18.5632 19.5355 19.4991C18.5979 20.435 17.3261 20.9608 16 20.9608H8C6.67392 20.9608 5.40215 20.435 4.46447 19.4991C3.52678 18.5632 3 17.2938 3 15.9702V7.98507C3 6.66146 3.52678 5.39206 4.46447 4.45612C5.40215 3.52019 6.67392 2.99438 8 2.99438H16ZM12 7.98507C10.9391 7.98507 9.92172 8.40571 9.17157 9.15446C8.42143 9.9032 8 10.9187 8 11.9776C8 13.0365 8.42143 14.052 9.17157 14.8008C9.92172 15.5495 10.9391 15.9702 12 15.9702C13.0609 15.9702 14.0783 15.5495 14.8284 14.8008C15.5786 14.052 16 13.0365 16 11.9776C16 10.9187 15.5786 9.9032 14.8284 9.15446C14.0783 8.40571 13.0609 7.98507 12 7.98507ZM12 9.98134C12.5304 9.98134 13.0391 10.1917 13.4142 10.566C13.7893 10.9404 14 11.4482 14 11.9776C14 12.5071 13.7893 13.0148 13.4142 13.3892C13.0391 13.7636 12.5304 13.9739 12 13.9739C11.4696 13.9739 10.9609 13.7636 10.5858 13.3892C10.2107 13.0148 10 12.5071 10 11.9776C10 11.4482 10.2107 10.9404 10.5858 10.566C10.9609 10.1917 11.4696 9.98134 12 9.98134ZM16.5 6.48786C16.2348 6.48786 15.9804 6.59302 15.7929 6.78021C15.6054 6.9674 15.5 7.22128 15.5 7.486C15.5 7.75072 15.6054 8.0046 15.7929 8.19179C15.9804 8.37897 16.2348 8.48414 16.5 8.48414C16.7652 8.48414 17.0196 8.37897 17.2071 8.19179C17.3946 8.0046 17.5 7.75072 17.5 7.486C17.5 7.22128 17.3946 6.9674 17.2071 6.78021C17.0196 6.59302 16.7652 6.48786 16.5 6.48786Z" fill="white"/>
</g>
</g>
<defs>
<clipPath id="clip0_1_1287">
<rect width="24" height="23.9553" fill="white"/>
</clipPath>
</defs>
</svg>
