<svg width="66" height="65" viewBox="0 0 66 65" fill="none" xmlns="http://www.w3.org/2000/svg">
<g id="Group">
<path id="Vector" d="M64.9792 64.9999H25.3594C23.4466 64.6223 21.9695 63.4938 20.5713 62.0914C20.0734 63.7137 18.9863 64.585 17.4844 64.9999H4.02465C2.34841 64.5601 1.29039 63.5021 0.850586 61.8258V39.8605C1.56423 37.3586 3.31516 36.6117 5.51833 36.6657C9.06997 36.7486 12.6299 36.7154 16.1815 36.674C17.7126 36.6574 19.0154 37.0308 20.1024 38.483C20.2643 38.2257 20.3555 37.9934 20.5174 37.8316C21.9446 36.3877 23.3636 34.9313 24.8366 33.5331C25.293 33.1016 25.3469 32.7282 25.1934 32.1597C23.1977 24.7785 21.2227 17.3931 19.2477 10.0035C18.9448 8.86664 19.2477 8.33556 20.3846 8.03267C22.5048 7.46424 24.6291 6.90411 26.7535 6.33569C28.5251 5.86269 30.2926 5.38554 32.0892 4.90424C32.0892 3.82548 32.0892 2.79235 32.0892 1.75507C32.0892 0.394165 32.4751 0 33.8111 0C43.9266 0 54.0421 0 64.1577 0C65.4646 0 65.8671 0.398314 65.8671 1.70113C65.8671 22.2268 65.8671 42.7482 65.8795 63.2739C65.8795 64.0539 65.6638 64.6265 64.9792 64.9999ZM44.2129 9.41432C43.6071 11.576 42.3292 13.0572 40.2463 13.7584C39.7733 13.9161 39.6406 14.1194 39.6406 14.6007C39.6572 22.1977 39.653 29.7906 39.653 37.3876C39.653 37.6075 39.6738 37.8316 39.6862 38.0432H46.3787C43.0138 36.1429 42.5118 32.9937 43.1341 30.8237C43.8436 28.3633 46.0924 26.5667 48.6815 26.4298C51.2456 26.2929 53.6646 27.853 54.6189 30.2719C55.2039 31.7531 55.2039 33.2426 54.623 34.7239C54.0463 36.1927 53.0007 37.2465 51.6315 38.0432C53.3824 38.0349 55.1168 37.956 56.4486 39.3543C57.7722 40.7442 58.0211 42.3582 57.378 44.1631C57.7058 44.188 57.9672 44.2087 58.3033 44.2336C58.3033 43.939 58.3033 43.6901 58.3033 43.4411C58.3033 39.0846 58.3033 34.7239 58.3033 30.3673C58.3033 29.1724 58.7514 28.5542 59.6019 28.5707C60.4318 28.5873 60.8384 29.1765 60.8425 30.3549C60.8425 35.3047 60.8342 40.2546 60.855 45.2087C60.855 45.607 60.9711 46.0426 61.162 46.3953C62.3694 48.6358 61.4524 51.3991 59.1289 52.4406C58.9464 52.5235 58.7597 52.6065 58.5813 52.6895C59.8716 55.8138 57.7846 58.9879 54.2994 58.963C54.7641 60.1164 54.7558 61.274 54.2994 62.4275H63.2905V2.58904H34.6741V38.039H37.1221V37.176C37.1221 29.2844 37.1221 21.3928 37.1221 13.5012C37.1221 13.2688 37.1138 13.0365 37.1304 12.8041C37.1885 12.0366 37.6158 11.6175 38.3793 11.547C40.4248 11.3686 41.5616 10.2649 41.794 8.22768C41.906 7.24019 42.3292 6.85432 43.3333 6.85432C47.1007 6.85432 50.8681 6.85432 54.6313 6.85432C55.6354 6.85432 56.0545 7.24019 56.1706 8.22768C56.4071 10.269 57.5357 11.3644 59.5853 11.547C60.328 11.6133 60.8052 12.02 60.8176 12.7419C60.8508 14.4762 60.8384 16.2106 60.8259 17.9449C60.8259 18.4552 60.5562 18.8245 60.0915 19.0403C59.2285 19.4344 58.3448 18.8411 58.3157 17.808C58.2825 16.7085 58.2908 15.6089 58.3157 14.5094C58.324 14.1153 58.212 13.9327 57.8054 13.7999C55.847 13.1568 54.5359 11.8415 53.8928 9.87487C53.843 9.72136 53.7849 9.56784 53.7351 9.41847H44.2212L44.2129 9.41432ZM26.2224 35.8151C26.1186 35.8732 26.0564 35.8939 26.0149 35.9354C24.3055 37.6407 22.5961 39.3418 20.9032 41.0596C20.7622 41.2048 20.6709 41.462 20.6709 41.6695C20.6584 47.2542 20.6584 52.843 20.6709 58.4277C20.6709 58.6601 20.8161 58.9547 20.9903 59.1123C21.7828 59.8426 22.6292 60.5189 23.4176 61.2491C24.3345 62.0997 25.3926 62.4731 26.6456 62.4689C34.392 62.4524 42.1383 62.4607 49.8806 62.4607C50.0922 62.4607 50.3038 62.469 50.5154 62.4441C51.2705 62.3569 51.8597 61.8341 52.034 61.1122C52.3244 59.9256 51.4904 58.9173 50.1752 58.909C47.192 58.8966 44.2088 58.909 41.2255 58.909C41.0554 58.909 40.8853 58.909 40.7194 58.909C39.9103 58.8841 39.3377 58.3613 39.3377 57.6435C39.3377 56.9257 39.9061 56.3781 40.7152 56.3781C44.1631 56.3698 47.6152 56.3781 51.0631 56.3739C52.2705 56.3739 53.4779 56.3905 54.6811 56.3656C55.6229 56.3449 56.3283 55.6644 56.4237 54.7516C56.5109 53.9467 55.9839 53.1542 55.1665 52.9177C54.8678 52.8347 54.54 52.8223 54.2288 52.8223C49.9138 52.8181 45.5946 52.8223 41.2795 52.8223C41.1094 52.8223 40.9393 52.8223 40.7733 52.8223C39.9186 52.8057 39.3336 52.2829 39.3377 51.5443C39.3419 50.8058 39.9269 50.2872 40.7899 50.2872C46.1422 50.283 51.4987 50.2872 56.8511 50.2872C57.0834 50.2872 57.3199 50.2955 57.5481 50.2706C58.3116 50.1876 58.9464 49.6192 59.1082 48.8889C59.27 48.1545 58.9464 47.333 58.2659 47.0011C57.905 46.8227 57.461 46.7438 57.0502 46.7397C51.7601 46.7231 46.47 46.7272 41.1799 46.7272C39.9684 46.7272 39.3543 46.3082 39.3418 45.4742C39.3294 44.6361 39.9559 44.188 41.1509 44.188C42.6528 44.188 44.1548 44.188 45.6568 44.188C48.1753 44.188 50.6938 44.1921 53.2123 44.188C54.3741 44.188 55.1873 43.437 55.1831 42.4039C55.179 41.3707 54.3658 40.6488 53.1957 40.6363C53.0256 40.6363 52.8555 40.6363 52.6895 40.6363C44.7108 40.6363 36.7321 40.6363 28.7533 40.6363C27.7534 40.6363 27.38 40.3459 27.1352 39.3916C26.8323 38.2133 26.5294 37.0349 26.2182 35.8317L26.2224 35.8151ZM9.48902 39.2298C7.81278 39.2298 6.22783 39.2132 4.64287 39.2381C3.87114 39.2505 3.39813 39.7941 3.39398 40.6239C3.38984 47.4367 3.38984 54.2496 3.39398 61.0583C3.39398 61.942 3.89603 62.4524 4.76734 62.4524C8.76708 62.4607 12.7668 62.4607 16.7624 62.4524C17.6047 62.4524 18.1109 61.942 18.115 61.0998C18.1233 54.2662 18.1233 47.4326 18.115 40.599C18.115 39.7277 17.6047 39.2381 16.7209 39.2257C15.916 39.2132 15.1111 39.2257 14.3103 39.2257C13.5593 39.2257 12.8042 39.2257 12.0241 39.2257V40.0098C12.0241 44.4535 12.0241 48.8931 12.0241 53.3368C12.0241 53.5484 12.0366 53.76 12.0117 53.9716C11.937 54.6313 11.4225 55.096 10.7752 55.1043C10.1031 55.1126 9.56786 54.6396 9.49318 53.9508C9.47243 53.7434 9.48072 53.5276 9.48072 53.316C9.48072 48.8723 9.48072 44.4328 9.48072 39.9891V39.2298H9.48902ZM32.0892 7.53063C28.6745 8.44758 25.322 9.34379 21.9239 10.2566C24.4424 19.5879 26.9402 28.8321 29.4338 38.0681H31.9647C31.8942 37.7942 31.832 37.5536 31.7697 37.3171C30.2263 31.5871 28.6786 25.8572 27.1352 20.1273C26.8281 18.9822 27.0563 18.5424 28.1559 18.1357C29.7201 17.559 30.637 16.0695 30.4296 14.4389C30.2429 12.9535 30.3549 12.7875 31.7241 12.3187C31.8735 12.2689 32.0768 12.0615 32.0768 11.9245C32.1017 10.4889 32.0934 9.05335 32.0934 7.53478L32.0892 7.53063ZM48.9719 28.9566C47.0301 28.9566 45.4244 30.5748 45.4369 32.5165C45.4493 34.4334 47.0343 36.0225 48.9512 36.0391C50.8888 36.0557 52.5153 34.4459 52.5194 32.5083C52.5277 30.5706 50.9137 28.9525 48.9719 28.9566ZM31.9855 28.3757C32.0062 28.3674 32.027 28.3633 32.0477 28.355V18.3556C31.3797 18.9116 30.6827 19.4718 30.0147 20.0692C29.9026 20.1688 29.857 20.4344 29.8985 20.592C30.2138 21.8368 30.554 23.0773 30.8901 24.3179C31.2552 25.6705 31.6204 27.019 31.9855 28.3716V28.3757Z" fill="#E20613"/>
<path id="Vector_2" d="M59.5729 22.8533C60.2617 22.8533 60.8177 23.401 60.8301 24.098C60.8384 24.8199 60.2658 25.4008 59.5522 25.3842C58.8676 25.3676 58.3158 24.7951 58.3199 24.1063C58.3241 23.4217 58.8925 22.8533 59.5729 22.8533Z" fill="#E20613"/>
<path id="Vector_3" d="M12.0241 58.6561C12.0241 59.3365 11.4515 59.9091 10.771 59.9132C10.0657 59.9174 9.47238 59.3158 9.49728 58.6104C9.51802 57.93 10.103 57.3698 10.7835 57.3823C11.464 57.3947 12.0282 57.9715 12.0282 58.6519L12.0241 58.6561Z" fill="#E20613"/>
</g>
</svg>
