<svg width="66" height="65" viewBox="0 0 66 65" fill="none" xmlns="http://www.w3.org/2000/svg">
<g id="Group">
<path id="Vector" d="M65.9999 11.8442C65.8291 13.1236 65.6582 14.4031 65.4915 15.6826C64.3287 24.6431 62.4741 33.4244 58.8565 41.7597C56.1934 47.8945 52.6384 53.4084 47.5288 57.8136C43.5195 61.2728 38.9392 63.6442 33.8088 64.9487C33.4963 65.0278 33.1295 65.0112 32.8169 64.9278C24.6024 62.7898 18.155 58.097 13.1997 51.2745C9.51546 46.2025 7.04819 40.5344 5.17691 34.5913C3.43065 29.0483 2.27205 23.3761 1.47185 17.6289C1.19679 15.6534 0.984232 13.6654 0.73834 11.6858C0.429932 9.18103 1.8136 6.12612 5.19775 5.48014C14.3291 3.73805 23.4355 1.85843 32.5585 0.0663287C33.1837 -0.0545338 33.8797 0.00381358 34.5132 0.128844C43.5737 1.91678 52.6259 3.74222 61.6822 5.53848C64.0286 6.00526 65.3164 7.48062 65.8749 9.71449C65.9041 9.83535 65.9582 9.94788 66.0041 10.0604V11.8442H65.9999ZM63.9494 11.4983C63.9869 9.12268 62.995 7.88072 61.1488 7.50979C52.2841 5.73436 43.4195 3.95894 34.5465 2.20018C33.9338 2.07931 33.2629 2.00013 32.6627 2.12099C23.6647 3.88808 14.6792 5.70102 5.68537 7.48895C3.6057 7.90155 2.54294 9.26438 2.75549 11.3941C3.30146 16.762 4.07665 22.0966 5.28944 27.3604C6.82731 34.0287 8.94865 40.4803 12.4037 46.4359C17.0589 54.4586 23.5605 60.2142 32.6335 62.7648C33.0711 62.8857 33.6004 62.8898 34.038 62.769C40.5855 60.956 45.9826 57.3635 50.317 52.1456C54.4055 47.2194 57.0936 41.5472 59.1191 35.5249C60.9737 30.0152 62.1782 24.3514 63.0326 18.6125C63.4076 16.091 63.6869 13.5571 63.9494 11.4983Z" fill="#E20613"/>
<path id="Vector_2" d="M5.80631 12.0524C5.72295 10.7604 5.92716 10.4729 6.84405 10.2895C15.5003 8.55574 24.1524 6.78865 32.8253 5.13408C33.8256 4.94237 34.9592 5.30913 36.0094 5.51751C43.8197 7.05955 51.6215 8.62659 59.4276 10.1895C59.5735 10.2186 59.7193 10.252 59.861 10.2853C60.7446 10.4895 60.9946 10.7729 60.8946 11.6565C60.6571 13.7653 60.4195 15.8783 60.1153 17.9789C59.3234 23.4718 58.1856 28.8898 56.431 34.1619C54.6223 39.5966 52.2425 44.7395 48.6958 49.2781C44.8991 54.1418 40.1521 57.6843 34.2548 59.6264C33.638 59.8306 33.0796 59.8348 32.4586 59.6347C25.857 57.4842 20.7766 53.3457 16.8256 47.7277C13.3165 42.7348 11.0492 37.171 9.3655 31.3446C7.81929 25.9891 6.82321 20.5211 6.15222 14.9906C6.01885 13.8945 5.8855 12.7984 5.79797 12.0524H5.80631ZM7.87347 12.1524C7.99016 13.1235 8.09436 14.0321 8.20689 14.9323C8.88205 20.3753 9.86145 25.7599 11.4077 31.032C13.0039 36.4792 15.1252 41.6929 18.3885 46.3857C22.0186 51.6078 26.6738 55.5171 32.7712 57.5634C33.1171 57.6801 33.5713 57.6801 33.9173 57.5634C39.6812 55.6379 44.1781 52.0162 47.7456 47.1651C51.0422 42.6806 53.2219 37.6503 54.8765 32.374C56.6436 26.7435 57.7147 20.9671 58.4649 15.124C58.5899 14.1446 58.6941 13.1569 58.8066 12.1649C58.6441 12.1233 58.5649 12.1024 58.4857 12.0858C50.6171 10.5146 42.7527 8.935 34.88 7.37629C34.184 7.23876 33.4296 7.08456 32.7587 7.20959C27.7533 8.15982 22.7604 9.17673 17.7634 10.1728C14.4959 10.823 11.2326 11.4773 7.87347 12.1441V12.1524Z" fill="#E20613"/>
<path id="Vector_3" d="M23.5688 43.7852C22.8103 44.0269 22.1101 44.252 21.4058 44.4687C20.5056 44.748 19.8429 44.6063 19.3886 44.0103C18.8843 43.3476 18.9844 42.6808 19.3886 41.9931C20.7348 39.6842 22.0684 37.3628 23.4021 35.0456C23.5146 34.8456 23.623 34.6455 23.7772 34.3621C23.4771 34.2913 23.2396 34.2287 23.002 34.1829C21.1099 33.7911 20.0346 32.0949 20.4847 30.2194C20.5181 30.0736 20.5473 29.9277 20.6056 29.7902C20.9473 28.9941 20.739 28.4023 20.0638 27.8397C18.8718 26.8436 18.5634 25.2724 19.2719 23.9846C19.5137 23.547 19.8596 23.1469 20.2388 22.8177C20.8515 22.28 20.9723 21.7132 20.7056 20.9464C20.0221 18.9834 21.0099 17.1621 23.0437 16.7078C24.0398 16.487 24.5524 16.0535 24.7524 14.9949C25.0858 13.2153 26.8821 12.2151 28.6575 12.661C28.9243 12.7277 29.1952 12.7986 29.4536 12.8861C30.012 13.082 30.4371 12.8944 30.8122 12.4735C32.4751 10.6272 34.3422 10.5897 36.0552 12.411C36.6053 12.9986 37.1429 13.157 37.9223 12.8778C39.8477 12.1901 41.6398 13.1737 42.165 15.1491C42.2191 15.3534 42.2692 15.5617 42.315 15.766C42.4525 16.3744 42.8193 16.6995 43.4403 16.8204C45.7325 17.2538 46.7786 18.9459 46.0909 21.1881C45.8242 22.055 45.9575 22.6468 46.6744 23.2469C48.1206 24.4681 48.1539 26.5144 46.8369 27.8814C46.6452 28.0814 46.4493 28.2731 46.2409 28.4565C45.8283 28.8274 45.745 29.2734 45.895 29.7902C46.641 32.345 45.8742 33.712 43.2944 34.4455C43.2194 34.4663 43.1485 34.5163 43.0318 34.5747C43.6278 35.6082 44.2071 36.6127 44.7864 37.6212C45.6366 39.0924 46.4785 40.5678 47.337 42.0348C47.7246 42.7016 47.7997 43.356 47.3204 43.9978C46.8786 44.5896 46.2243 44.748 45.3699 44.4896C44.6447 44.2687 43.9237 44.0395 43.1319 43.7894C42.961 44.5562 42.8068 45.2522 42.6526 45.9482C42.4442 46.9068 41.9983 47.4236 41.2189 47.5195C40.3604 47.6278 39.8477 47.1444 39.4435 46.44C38.1932 44.2437 36.922 42.0598 35.6592 39.8759C35.5425 39.6759 35.4217 39.4842 35.3675 39.3925C34.6381 39.5842 33.9755 39.8759 33.3087 39.8968C32.6627 39.9176 32.0042 39.6592 31.2665 39.505C31.0706 39.8384 30.8039 40.2927 30.5413 40.747C29.4369 42.66 28.3241 44.5646 27.2322 46.4859C26.8404 47.1694 26.3236 47.6195 25.4984 47.5236C24.7191 47.4361 24.2606 46.9151 24.0564 45.9649C23.9022 45.2647 23.748 44.5646 23.5771 43.7852H23.5688ZM28.0157 14.6115C27.253 14.5615 26.8071 14.9116 26.6696 15.6909C26.3778 17.3372 25.4109 18.2791 23.7939 18.6C23.7105 18.6166 23.6272 18.6333 23.5438 18.6583C22.6394 18.9125 22.3518 19.4502 22.6269 20.3379C22.7394 20.7005 22.852 21.0714 22.8895 21.4465C23.027 22.7176 22.3685 23.6179 21.485 24.4264C20.7765 25.0765 20.7431 25.7809 21.4266 26.331C22.777 27.4229 23.0854 28.7566 22.5644 30.3695C22.1935 31.5198 22.5269 32.0157 23.7272 32.2449C25.04 32.495 25.886 33.2702 26.282 34.5372C26.3653 34.7997 26.407 35.0748 26.482 35.3415C26.7154 36.1917 27.2822 36.4876 28.1324 36.2376C28.5367 36.1167 28.9493 35.9875 29.366 35.9542C30.608 35.8541 31.4832 36.5251 32.2751 37.392C32.9294 38.113 33.6171 38.1005 34.2214 37.3628C35.2508 36.1125 36.5178 35.7916 38.0431 36.2501C39.4101 36.6627 39.7936 36.4209 40.0978 35.0373C40.377 33.7536 41.1522 32.9409 42.4025 32.57C42.6859 32.4867 42.9818 32.4366 43.2652 32.3491C43.9987 32.1282 44.353 31.5323 44.0863 30.8279C43.4611 29.1692 43.8279 27.8147 45.1532 26.6519C45.9909 25.9184 45.9617 25.3058 45.124 24.5806C44.403 23.9513 43.8946 23.2053 43.8904 22.2342C43.8904 21.6924 44.0237 21.1423 44.1613 20.613C44.4363 19.546 44.1613 19.0376 43.0902 18.825C41.9858 18.6041 41.1022 18.0748 40.6229 17.0246C40.4396 16.6245 40.3437 16.1827 40.227 15.7535C39.9769 14.8324 39.4018 14.4948 38.5057 14.8199C36.9929 15.37 35.7342 15.0408 34.6423 13.8655C33.6921 12.8402 33.217 12.8569 32.3042 13.8613C31.3707 14.8866 30.2371 15.22 28.8993 14.8574C28.5742 14.7699 28.2449 14.674 28.0157 14.6115ZM25.8777 44.7313C27.2114 42.4224 28.4658 40.2469 29.7245 38.0713C29.7203 38.0088 29.7161 37.9505 29.712 37.888C27.7948 38.6548 26.0778 38.6465 24.7983 36.7085C23.7314 38.559 22.7019 40.3386 21.5975 42.2515C22.2351 42.0598 22.7144 41.9098 23.1979 41.7681C24.4274 41.4013 25.2192 41.8556 25.5193 43.1101C25.636 43.5977 25.736 44.0853 25.8819 44.7313H25.8777ZM45.099 42.2557C43.9654 40.2927 42.9151 38.4673 41.8316 36.5918C40.7104 38.5756 39.0434 38.8465 36.9679 38.0672C38.2849 40.3511 39.5143 42.4724 40.8146 44.7313C40.9522 44.1061 41.0522 43.6352 41.1564 43.1684C41.4565 41.8514 42.2775 41.3805 43.5611 41.7806C44.0196 41.9223 44.4822 42.0681 45.0948 42.2557H45.099Z" fill="#E20613"/>
<path id="Vector_4" d="M33.3254 33.9328C28.6617 33.9244 24.9192 30.1568 24.9275 25.4849C24.9358 20.8504 28.7534 17.0662 33.3962 17.0912C38.0098 17.1162 41.7691 20.9046 41.7649 25.5224C41.7607 30.1818 37.989 33.9411 33.3254 33.9328ZM33.3337 31.8906C36.847 31.8948 39.7102 29.0607 39.7269 25.5599C39.7436 22.0299 36.8804 19.1375 33.3587 19.1292C29.8662 19.1208 26.9863 21.9799 26.9697 25.4724C26.953 29.0149 29.7953 31.8823 33.3379 31.8906H33.3337Z" fill="#E20613"/>
<path id="Vector_5" d="M32.2334 26.5769C33.6129 25.1932 34.9258 23.8637 36.2594 22.5551C36.4886 22.33 36.8345 22.0591 37.1054 22.0841C37.4472 22.1133 37.8556 22.3509 38.0724 22.6259C38.3641 22.9927 38.2182 23.447 37.8973 23.7804C37.218 24.4805 36.522 25.1682 35.8301 25.8559C34.9466 26.7436 34.063 27.6313 33.1712 28.5107C32.5252 29.1483 32.0042 29.1525 31.3624 28.519C30.5622 27.7272 29.7662 26.9311 28.9743 26.1351C28.4075 25.5641 28.3408 24.9723 28.7784 24.5181C29.2327 24.0471 29.8412 24.1138 30.4372 24.7139C31.0331 25.3141 31.6166 25.9309 32.2334 26.5685V26.5769Z" fill="#E20613"/>
</g>
</svg>
