<svg width="56" height="62" viewBox="0 0 56 62" fill="none" xmlns="http://www.w3.org/2000/svg">
<g id="Group">
<path id="Vector" d="M44.0433 34.2197C45.4219 34.2197 46.7268 34.2197 48.036 34.2197C51.0534 34.2197 52.7398 35.503 53.5765 38.4943C53.9016 38.4943 54.2484 38.4856 54.5952 38.4943C55.5663 38.516 55.9782 39.0752 55.7354 40.055C55.2065 42.1923 54.6733 44.3252 54.1357 46.4581C52.9522 51.2009 51.7643 55.9437 50.5808 60.6864C50.299 61.8179 50.0736 62 48.9421 62C34.9696 62 20.9971 62 7.0246 62C6.00149 62 5.72404 61.7919 5.4856 60.8165C3.78185 53.9581 2.07809 47.0998 0.383005 40.2414C0.0665325 38.9712 0.443709 38.4986 1.74862 38.49C1.94804 38.49 2.14312 38.49 2.36422 38.49C2.62433 37.2154 3.17924 36.1489 4.17635 35.3469C5.09108 34.6099 6.13587 34.2241 7.31506 34.2154C8.8454 34.2067 10.3801 34.2154 12.0015 34.2154C12.0015 33.9163 12.0015 33.6605 12.0015 33.4004C12.0015 27.6345 11.9885 21.8686 12.0015 16.1071C12.0231 8.42937 17.1821 2.03922 24.6864 0.370149C33.4566 -1.58071 42.3265 4.39326 43.7788 13.2675C43.9782 14.49 43.9479 15.7473 44.0563 16.9871C44.0823 17.2993 44.1733 17.6418 44.3467 17.8932C45.3698 19.4149 45.3698 21.253 44.3251 22.7747C44.195 22.9654 44.0606 23.2039 44.0606 23.4207C44.0433 26.9799 44.0476 30.5435 44.0476 34.2111L44.0433 34.2197ZM53.351 40.6663H2.68936C4.2934 47.0911 5.88877 53.4639 7.48414 59.8454H48.5606C50.156 53.4682 51.747 47.0954 53.3554 40.6663H53.351ZM41.9667 16.0767C41.8583 15.175 41.7976 14.2429 41.6329 13.3325C40.315 6.05799 32.8844 0.964077 25.6488 2.36003C18.7558 3.69095 14.1388 9.26607 14.1344 16.2805C14.1301 22.0204 14.1344 27.7646 14.1344 33.5044V34.1764H21.6127C21.6127 33.8079 21.5737 33.4741 21.6214 33.1489C21.7211 32.425 21.4523 31.9437 20.8931 31.4495C18.5824 29.3903 17.3945 26.7675 17.3512 23.6764C17.3078 20.4944 17.3382 17.3123 17.3425 14.1302C17.3425 13.2458 17.7283 12.847 18.591 12.847C24.8858 12.8427 31.1806 12.8427 37.4754 12.847C38.3034 12.847 38.6892 13.2502 38.7023 14.0825C38.7109 14.7198 38.7023 15.3571 38.7023 16.0767H41.9667ZM28.0505 28.8744C30.0968 28.8744 32.0953 28.857 34.0939 28.8874C34.5578 28.8961 34.8222 28.727 35.065 28.3628C36.0361 26.8932 36.552 25.2891 36.5606 23.529C36.5693 20.8585 36.5606 18.188 36.5606 15.5175C36.5606 15.3484 36.5303 15.1793 36.5173 15.0363H19.4841C19.4841 18.0926 19.3887 21.1013 19.5058 24.1013C19.6922 28.818 24.0621 32.516 28.7659 32.0521C29.8584 31.9437 30.9248 31.6966 31.8526 31.003H28.0505V28.8787V28.8744ZM40.8395 24.6302C40.8395 26.3383 40.8395 28.0073 40.8395 29.6721C40.8395 30.6302 40.4624 31.003 39.5086 31.0073C38.3511 31.0117 37.1979 31.0073 36.0404 31.0073C35.5722 31.0073 34.458 31.8961 34.4407 32.3079C34.4147 32.9235 34.432 33.5391 34.432 34.1721H41.8713V24.4698C41.5288 24.5218 41.221 24.5695 40.8395 24.6258V24.6302ZM28.5794 38.3512C28.5794 38.3816 28.5838 38.4119 28.5881 38.4423H39.7427V36.357C37.6704 36.357 35.6285 36.357 33.591 36.357C33.4869 36.357 33.3786 36.4134 33.2745 36.4524C31.7095 37.081 30.1445 37.714 28.5794 38.3469V38.3512ZM27.513 38.4726C27.4349 38.3859 27.4133 38.3426 27.3829 38.3296C27.0361 38.1822 26.6806 38.0521 26.3381 37.8917C23.9191 36.7385 21.4176 36.0275 18.6951 36.3353C17.9147 36.4221 17.1127 36.3484 16.3194 36.3484V38.4683H27.513V38.4726ZM4.67922 38.4423H14.1041V36.37C11.7197 36.37 9.36563 36.318 7.01593 36.3917C5.84107 36.4264 4.89598 37.3628 4.67922 38.4423ZM41.9363 38.4423H51.3048C50.971 37.1894 49.9132 36.3657 48.5953 36.3527C46.8395 36.3353 45.0837 36.3484 43.3279 36.3484C42.8684 36.3484 42.4089 36.3484 41.932 36.3484V38.4423H41.9363ZM38.7543 18.188V22.4452C39.5303 22.4452 40.2629 22.4842 40.9912 22.4365C42.1227 22.3672 42.9725 21.4264 42.9725 20.3166C42.9725 19.2111 42.1141 18.266 40.9869 18.1967C40.2586 18.1533 39.5259 18.188 38.7499 18.188H38.7543ZM23.8193 33.4004C23.7008 34.1374 23.9668 34.6359 24.617 34.896C25.5838 35.2862 26.5419 35.7024 27.526 36.0492C27.8251 36.1533 28.2239 36.1576 28.5231 36.0492C29.5289 35.6981 30.5043 35.2732 31.4971 34.8787C32.4378 34.5059 32.4508 34.4799 32.2037 33.4221C29.5563 34.0984 26.7615 34.0897 23.8193 33.3961V33.4004ZM38.6676 28.844V25.4235C38.2774 26.4857 37.8482 27.6562 37.4147 28.844H38.6676Z" fill="#E20613"/>
<path id="Vector_2" d="M28.0072 58.8006C23.3165 58.8049 19.4667 54.9509 19.4754 50.2558C19.4841 45.5348 23.3078 41.6981 27.9985 41.7024C32.75 41.7067 36.5736 45.5348 36.565 50.2775C36.5563 54.9769 32.7283 58.7963 28.0115 58.8006H28.0072ZM34.4277 50.2125C34.4147 46.7139 31.5404 43.844 28.0462 43.8397C24.4783 43.8397 21.604 46.7183 21.6084 50.2905C21.6127 53.8064 24.5217 56.6807 28.0549 56.659C31.5881 56.6373 34.4364 53.7544 34.4234 50.2081L34.4277 50.2125Z" fill="#E20613"/>
<path id="Vector_3" d="M27.0057 49.2068H29.0476V54.4914H27.0057V49.2068Z" fill="#E20613"/>
<path id="Vector_4" d="M26.9884 46.0073H29.039V48.0709H26.9884V46.0073Z" fill="#E20613"/>
</g>
</svg>
