<svg width="24" height="24" viewBox="0 0 24 24" fill="none" xmlns="http://www.w3.org/2000/svg">
<g id="tiktok_fill" clip-path="url(#clip0_1_1282)">
<g id="Group">
<path id="Vector" fill-rule="evenodd" clip-rule="evenodd" d="M14 1.99634C14.5304 1.99634 15.0391 2.20666 15.4142 2.58103C15.7893 2.95541 16 3.46317 16 3.99261C16.0005 4.68244 16.2393 5.35099 16.6761 5.88555C17.113 6.42011 17.7211 6.78798 18.398 6.92713C18.9178 7.03249 19.3744 7.33965 19.6674 7.78104C19.9603 8.22243 20.0656 8.76189 19.96 9.28074C19.8544 9.7996 19.5467 10.2553 19.1045 10.5477C18.6623 10.8401 18.1218 10.9452 17.602 10.8398C17.0483 10.7274 16.5103 10.5481 16 10.3058V15.9703C15.9999 17.0904 15.6852 18.1881 15.0914 19.1386C14.4976 20.0891 13.6487 20.8544 12.641 21.3474C11.6334 21.8405 10.5074 22.0416 9.39093 21.9279C8.27449 21.8142 7.21238 21.3902 6.32525 20.7042C5.43812 20.0181 4.76154 19.0975 4.37235 18.0469C3.98317 16.9962 3.89699 15.8577 4.1236 14.7607C4.35022 13.6636 4.88054 12.6519 5.65433 11.8407C6.42812 11.0294 7.41435 10.4509 8.501 10.1711C9.01141 10.0482 9.54976 10.1306 9.99984 10.4005C10.4499 10.6704 10.7756 11.1061 10.9066 11.6136C11.0376 12.1211 10.9635 12.6596 10.7001 13.113C10.4368 13.5664 10.0053 13.8982 9.499 14.0369C9.03017 14.161 8.62246 14.4509 8.35161 14.8525C8.08077 15.2542 7.96523 15.7403 8.02646 16.2206C8.08769 16.7008 8.32153 17.1426 8.68452 17.4637C9.04751 17.7848 9.51496 17.9635 10 17.9665C10.5304 17.9665 11.0391 17.7562 11.4142 17.3818C11.7893 17.0075 12 16.4997 12 15.9703V3.99261C12 3.46317 12.2107 2.95541 12.5858 2.58103C12.9609 2.20666 13.4696 1.99634 14 1.99634Z" fill="white"/>
</g>
</g>
<defs>
<clipPath id="clip0_1_1282">
<rect width="24" height="23.9553" fill="white"/>
</clipPath>
</defs>
</svg>
