<svg width="24" height="24" viewBox="0 0 24 24" fill="none" xmlns="http://www.w3.org/2000/svg">
<g id="youtube_fill" clip-path="url(#clip0_1_1292)">
<g id="Group">
<path id="Vector" fill-rule="evenodd" clip-rule="evenodd" d="M12.0002 3.99243C12.8552 3.99243 13.7322 4.01439 14.5822 4.05032L15.5862 4.09823L16.5472 4.15513L17.4472 4.21601L18.2692 4.2799C19.1613 4.34805 20.0007 4.72801 20.6398 5.35293C21.2788 5.97786 21.6767 6.80772 21.7632 7.69652L21.8032 8.12072L21.8782 9.02903C21.9482 9.97027 22.0002 10.9964 22.0002 11.9775C22.0002 12.9587 21.9482 13.9848 21.8782 14.926L21.8032 15.8343C21.7902 15.9801 21.7772 16.1208 21.7632 16.2585C21.6766 17.1475 21.2787 17.9775 20.6394 18.6024C20.0001 19.2274 19.1605 19.6072 18.2682 19.6752L17.4482 19.738L16.5482 19.7999L15.5862 19.8568L14.5822 19.9047C13.7221 19.942 12.8612 19.9613 12.0002 19.9626C11.1393 19.9613 10.2784 19.942 9.41824 19.9047L8.41424 19.8568L7.45324 19.7999L6.55324 19.738L5.73124 19.6752C4.83919 19.607 3.9998 19.227 3.36072 18.6021C2.72164 17.9772 2.32382 17.1473 2.23724 16.2585L2.19724 15.8343L2.12224 14.926C2.04578 13.945 2.00509 12.9615 2.00024 11.9775C2.00024 10.9964 2.05224 9.97027 2.12224 9.02903L2.19724 8.12072C2.21024 7.975 2.22324 7.83426 2.23724 7.69652C2.32378 6.80787 2.72146 5.97814 3.36034 5.35323C3.99921 4.72833 4.83837 4.34827 5.73024 4.2799L6.55124 4.21601L7.45124 4.15513L8.41324 4.09823L9.41724 4.05032C10.2777 4.01303 11.1389 3.99372 12.0002 3.99243ZM10.0002 9.55704V14.398C10.0002 14.8591 10.5002 15.1466 10.9002 14.917L15.1002 12.4966C15.1916 12.444 15.2675 12.3684 15.3203 12.2773C15.3731 12.1862 15.4009 12.0828 15.4009 11.9775C15.4009 11.8723 15.3731 11.7689 15.3203 11.6777C15.2675 11.5866 15.1916 11.511 15.1002 11.4585L10.9002 9.03901C10.809 8.98643 10.7055 8.95876 10.6001 8.95877C10.4948 8.95879 10.3913 8.9865 10.3001 9.03911C10.2089 9.09171 10.1331 9.16737 10.0805 9.25847C10.0278 9.34956 10.0002 9.45288 10.0002 9.55804V9.55704Z" fill="white"/>
</g>
</g>
<defs>
<clipPath id="clip0_1_1292">
<rect width="24" height="23.9553" fill="white"/>
</clipPath>
</defs>
</svg>
